%TF.GenerationSoftware,KiCad,Pcbnew,(6.0.4)*%
%TF.CreationDate,2023-10-16T18:27:53+02:00*%
%TF.ProjectId,ZB,5a422e6b-6963-4616-945f-706362585858,rev?*%
%TF.SameCoordinates,Original*%
%TF.FileFunction,Copper,L2,Bot*%
%TF.FilePolarity,Positive*%
%FSLAX46Y46*%
G04 Gerber Fmt 4.6, Leading zero omitted, Abs format (unit mm)*
G04 Created by KiCad (PCBNEW (6.0.4)) date 2023-10-16 18:27:53*
%MOMM*%
%LPD*%
G01*
G04 APERTURE LIST*
%TA.AperFunction,ComponentPad*%
%ADD10R,1.600000X1.600000*%
%TD*%
%TA.AperFunction,ComponentPad*%
%ADD11O,1.600000X1.600000*%
%TD*%
%TA.AperFunction,ComponentPad*%
%ADD12C,1.924000*%
%TD*%
%TA.AperFunction,ComponentPad*%
%ADD13R,1.752600X1.752600*%
%TD*%
%TA.AperFunction,ComponentPad*%
%ADD14C,1.752600*%
%TD*%
%TA.AperFunction,ComponentPad*%
%ADD15C,1.600000*%
%TD*%
%TA.AperFunction,ComponentPad*%
%ADD16R,1.800000X1.800000*%
%TD*%
%TA.AperFunction,ComponentPad*%
%ADD17C,1.800000*%
%TD*%
%TA.AperFunction,ViaPad*%
%ADD18C,0.800000*%
%TD*%
%TA.AperFunction,Conductor*%
%ADD19C,1.000000*%
%TD*%
%TA.AperFunction,Conductor*%
%ADD20C,0.250000*%
%TD*%
G04 APERTURE END LIST*
D10*
%TO.P,U5,1,QB*%
%TO.N,unconnected-(U5-Pad1)*%
X16500000Y-50307000D03*
D11*
%TO.P,U5,2,QC*%
%TO.N,Net-(D20-Pad2)*%
X16500000Y-52847000D03*
%TO.P,U5,3,QD*%
%TO.N,Net-(D19-Pad2)*%
X16500000Y-55387000D03*
%TO.P,U5,4,QE*%
%TO.N,Net-(D18-Pad2)*%
X16500000Y-57927000D03*
%TO.P,U5,5,QF*%
%TO.N,Net-(D17-Pad2)*%
X16500000Y-60467000D03*
%TO.P,U5,6,QG*%
%TO.N,Net-(D16-Pad2)*%
X16500000Y-63007000D03*
%TO.P,U5,7,QH*%
%TO.N,Net-(D15-Pad2)*%
X16500000Y-65547000D03*
%TO.P,U5,8,GND*%
%TO.N,GND*%
X16500000Y-68087000D03*
%TO.P,U5,9,QH'*%
%TO.N,unconnected-(U5-Pad9)*%
X8880000Y-68087000D03*
%TO.P,U5,10,~{SRCLR}*%
%TO.N,+3V3*%
X8880000Y-65547000D03*
%TO.P,U5,11,SRCLK*%
%TO.N,Net-(U1-Pad26)*%
X8880000Y-63007000D03*
%TO.P,U5,12,RCLK*%
%TO.N,Net-(U1-Pad27)*%
X8880000Y-60467000D03*
%TO.P,U5,13,~{OE}*%
%TO.N,GND*%
X8880000Y-57927000D03*
%TO.P,U5,14,SER*%
%TO.N,Net-(U1-Pad21)*%
X8880000Y-55387000D03*
%TO.P,U5,15,QA*%
%TO.N,unconnected-(U5-Pad15)*%
X8880000Y-52847000D03*
%TO.P,U5,16,VCC*%
%TO.N,+3V3*%
X8880000Y-50307000D03*
%TD*%
D10*
%TO.P,U4,1,QB*%
%TO.N,Net-(D14-Pad2)*%
X55616000Y-45989000D03*
D11*
%TO.P,U4,2,QC*%
%TO.N,Net-(D13-Pad2)*%
X55616000Y-48529000D03*
%TO.P,U4,3,QD*%
%TO.N,Net-(D12-Pad2)*%
X55616000Y-51069000D03*
%TO.P,U4,4,QE*%
%TO.N,Net-(D11-Pad2)*%
X55616000Y-53609000D03*
%TO.P,U4,5,QF*%
%TO.N,Net-(D10-Pad2)*%
X55616000Y-56149000D03*
%TO.P,U4,6,QG*%
%TO.N,Net-(D9-Pad2)*%
X55616000Y-58689000D03*
%TO.P,U4,7,QH*%
%TO.N,Net-(D8-Pad2)*%
X55616000Y-61229000D03*
%TO.P,U4,8,GND*%
%TO.N,GND*%
X55616000Y-63769000D03*
%TO.P,U4,9,QH'*%
%TO.N,unconnected-(U4-Pad9)*%
X47996000Y-63769000D03*
%TO.P,U4,10,~{SRCLR}*%
%TO.N,+3V3*%
X47996000Y-61229000D03*
%TO.P,U4,11,SRCLK*%
%TO.N,Net-(U1-Pad26)*%
X47996000Y-58689000D03*
%TO.P,U4,12,RCLK*%
%TO.N,Net-(U1-Pad27)*%
X47996000Y-56149000D03*
%TO.P,U4,13,~{OE}*%
%TO.N,GND*%
X47996000Y-53609000D03*
%TO.P,U4,14,SER*%
%TO.N,Net-(U1-Pad22)*%
X47996000Y-51069000D03*
%TO.P,U4,15,QA*%
%TO.N,unconnected-(U4-Pad15)*%
X47996000Y-48529000D03*
%TO.P,U4,16,VCC*%
%TO.N,+3V3*%
X47996000Y-45989000D03*
%TD*%
D10*
%TO.P,U3,1,QB*%
%TO.N,Net-(D7-Pad2)*%
X91176000Y-46497000D03*
D11*
%TO.P,U3,2,QC*%
%TO.N,Net-(D6-Pad2)*%
X91176000Y-49037000D03*
%TO.P,U3,3,QD*%
%TO.N,Net-(D5-Pad2)*%
X91176000Y-51577000D03*
%TO.P,U3,4,QE*%
%TO.N,Net-(D4-Pad2)*%
X91176000Y-54117000D03*
%TO.P,U3,5,QF*%
%TO.N,Net-(D3-Pad2)*%
X91176000Y-56657000D03*
%TO.P,U3,6,QG*%
%TO.N,Net-(D2-Pad2)*%
X91176000Y-59197000D03*
%TO.P,U3,7,QH*%
%TO.N,Net-(D1-Pad2)*%
X91176000Y-61737000D03*
%TO.P,U3,8,GND*%
%TO.N,GND*%
X91176000Y-64277000D03*
%TO.P,U3,9,QH'*%
%TO.N,unconnected-(U3-Pad9)*%
X83556000Y-64277000D03*
%TO.P,U3,10,~{SRCLR}*%
%TO.N,+3V3*%
X83556000Y-61737000D03*
%TO.P,U3,11,SRCLK*%
%TO.N,Net-(U1-Pad26)*%
X83556000Y-59197000D03*
%TO.P,U3,12,RCLK*%
%TO.N,Net-(U1-Pad27)*%
X83556000Y-56657000D03*
%TO.P,U3,13,~{OE}*%
%TO.N,GND*%
X83556000Y-54117000D03*
%TO.P,U3,14,SER*%
%TO.N,Net-(U1-Pad23)*%
X83556000Y-51577000D03*
%TO.P,U3,15,QA*%
%TO.N,unconnected-(U3-Pad15)*%
X83556000Y-49037000D03*
%TO.P,U3,16,VCC*%
%TO.N,+3V3*%
X83556000Y-46497000D03*
%TD*%
D12*
%TO.P,U2,1,BAT*%
%TO.N,unconnected-(U2-Pad1)*%
X11850500Y-5517500D03*
%TO.P,U2,2,GND*%
%TO.N,GND*%
X12850500Y-30017500D03*
X14390500Y-5517500D03*
%TO.P,U2,3,VCC*%
%TO.N,+3V3*%
X16930500Y-5517500D03*
X15390500Y-30017500D03*
%TO.P,U2,4,SDA*%
%TO.N,Net-(U1-Pad28)*%
X17930500Y-30017500D03*
X19470500Y-5517500D03*
%TO.P,U2,5,SCL*%
%TO.N,Net-(U1-Pad29)*%
X22010500Y-5517500D03*
X20470500Y-30017500D03*
%TO.P,U2,6,DS*%
%TO.N,unconnected-(U2-Pad6)*%
X23010500Y-30017500D03*
X24550500Y-5517500D03*
%TO.P,U2,7,SQ*%
%TO.N,unconnected-(U2-Pad7)*%
X27090500Y-5517500D03*
%TD*%
D13*
%TO.P,U1,1,A0*%
%TO.N,unconnected-(U1-Pad1)*%
X105664000Y-4318000D03*
D14*
%TO.P,U1,2,RSV1*%
%TO.N,unconnected-(U1-Pad2)*%
X108204000Y-4318000D03*
%TO.P,U1,3,RSV2*%
%TO.N,unconnected-(U1-Pad3)*%
X110744000Y-4318000D03*
%TO.P,U1,4,SD3*%
%TO.N,unconnected-(U1-Pad4)*%
X113284000Y-4318000D03*
%TO.P,U1,5,SD2*%
%TO.N,unconnected-(U1-Pad5)*%
X115824000Y-4318000D03*
%TO.P,U1,6,SD1*%
%TO.N,unconnected-(U1-Pad6)*%
X118364000Y-4318000D03*
%TO.P,U1,7,CMD*%
%TO.N,unconnected-(U1-Pad7)*%
X120904000Y-4318000D03*
%TO.P,U1,8,SD0*%
%TO.N,unconnected-(U1-Pad8)*%
X123444000Y-4318000D03*
%TO.P,U1,9,CLK*%
%TO.N,unconnected-(U1-Pad9)*%
X125984000Y-4318000D03*
%TO.P,U1,10,GND*%
%TO.N,GND*%
X128524000Y-4318000D03*
%TO.P,U1,11,3V3*%
%TO.N,+3V3*%
X131064000Y-4318000D03*
%TO.P,U1,12,EN*%
%TO.N,unconnected-(U1-Pad12)*%
X133604000Y-4318000D03*
%TO.P,U1,13,RST*%
%TO.N,unconnected-(U1-Pad13)*%
X136144000Y-4318000D03*
%TO.P,U1,14,GND*%
%TO.N,GND*%
X138684000Y-4318000D03*
%TO.P,U1,15,VIN*%
%TO.N,unconnected-(U1-Pad15)*%
X141224000Y-4318000D03*
%TO.P,U1,16,3V3*%
%TO.N,+3V3*%
X141224000Y-27178000D03*
%TO.P,U1,17,GND*%
%TO.N,GND*%
X138684000Y-27178000D03*
%TO.P,U1,18,TX*%
%TO.N,unconnected-(U1-Pad18)*%
X136144000Y-27178000D03*
%TO.P,U1,19,RX*%
%TO.N,unconnected-(U1-Pad19)*%
X133604000Y-27178000D03*
%TO.P,U1,20,D8*%
%TO.N,unconnected-(U1-Pad20)*%
X131064000Y-27178000D03*
%TO.P,U1,21,D7*%
%TO.N,Net-(U1-Pad21)*%
X128524000Y-27178000D03*
%TO.P,U1,22,D6*%
%TO.N,Net-(U1-Pad22)*%
X125984000Y-27178000D03*
%TO.P,U1,23,D5*%
%TO.N,Net-(U1-Pad23)*%
X123444000Y-27178000D03*
%TO.P,U1,24,GND*%
%TO.N,GND*%
X120904000Y-27178000D03*
%TO.P,U1,25,3V3*%
%TO.N,+3V3*%
X118364000Y-27178000D03*
%TO.P,U1,26,D4*%
%TO.N,Net-(U1-Pad26)*%
X115824000Y-27178000D03*
%TO.P,U1,27,D3*%
%TO.N,Net-(U1-Pad27)*%
X113284000Y-27178000D03*
%TO.P,U1,28,D2*%
%TO.N,Net-(U1-Pad28)*%
X110744000Y-27178000D03*
%TO.P,U1,29,D1*%
%TO.N,Net-(U1-Pad29)*%
X108204000Y-27178000D03*
%TO.P,U1,30,D0*%
%TO.N,unconnected-(U1-Pad30)*%
X105664000Y-27178000D03*
%TD*%
D15*
%TO.P,R10,1*%
%TO.N,+3V3*%
X28956000Y-96774000D03*
D11*
%TO.P,R10,2*%
%TO.N,Net-(D30-Pad2)*%
X28956000Y-84074000D03*
%TD*%
D15*
%TO.P,R9,1*%
%TO.N,+3V3*%
X42926000Y-96520000D03*
D11*
%TO.P,R9,2*%
%TO.N,Net-(D29-Pad2)*%
X42926000Y-83820000D03*
%TD*%
D15*
%TO.P,R8,1*%
%TO.N,+3V3*%
X64262000Y-96266000D03*
D11*
%TO.P,R8,2*%
%TO.N,Net-(D28-Pad2)*%
X64262000Y-83566000D03*
%TD*%
D15*
%TO.P,R7,1*%
%TO.N,+3V3*%
X75184000Y-96266000D03*
D11*
%TO.P,R7,2*%
%TO.N,Net-(D27-Pad2)*%
X75184000Y-83566000D03*
%TD*%
D15*
%TO.P,R6,1*%
%TO.N,+3V3*%
X98806000Y-97028000D03*
D11*
%TO.P,R6,2*%
%TO.N,Net-(D26-Pad2)*%
X98806000Y-84328000D03*
%TD*%
D15*
%TO.P,R5,1*%
%TO.N,+3V3*%
X111506000Y-97028000D03*
D11*
%TO.P,R5,2*%
%TO.N,Net-(D25-Pad2)*%
X111506000Y-84328000D03*
%TD*%
D15*
%TO.P,R4,1*%
%TO.N,+3V3*%
X147574000Y-34798000D03*
D11*
%TO.P,R4,2*%
%TO.N,Net-(D24-Pad2)*%
X134874000Y-34798000D03*
%TD*%
D15*
%TO.P,R3,1*%
%TO.N,+3V3*%
X147320000Y-44958000D03*
D11*
%TO.P,R3,2*%
%TO.N,Net-(D23-Pad2)*%
X134620000Y-44958000D03*
%TD*%
D15*
%TO.P,R2,1*%
%TO.N,+3V3*%
X147320000Y-54356000D03*
D11*
%TO.P,R2,2*%
%TO.N,Net-(D22-Pad2)*%
X134620000Y-54356000D03*
%TD*%
D15*
%TO.P,R1,1*%
%TO.N,+3V3*%
X147320000Y-64770000D03*
D11*
%TO.P,R1,2*%
%TO.N,Net-(D21-Pad2)*%
X134620000Y-64770000D03*
%TD*%
D16*
%TO.P,D30,1,K*%
%TO.N,GND*%
X26670000Y-78232000D03*
D17*
%TO.P,D30,2,A*%
%TO.N,Net-(D30-Pad2)*%
X29210000Y-78232000D03*
%TD*%
D16*
%TO.P,D29,1,K*%
%TO.N,GND*%
X40386000Y-78232000D03*
D17*
%TO.P,D29,2,A*%
%TO.N,Net-(D29-Pad2)*%
X42926000Y-78232000D03*
%TD*%
D16*
%TO.P,D28,1,K*%
%TO.N,GND*%
X62992000Y-78232000D03*
D17*
%TO.P,D28,2,A*%
%TO.N,Net-(D28-Pad2)*%
X65532000Y-78232000D03*
%TD*%
D16*
%TO.P,D27,1,K*%
%TO.N,GND*%
X73406000Y-78232000D03*
D17*
%TO.P,D27,2,A*%
%TO.N,Net-(D27-Pad2)*%
X75946000Y-78232000D03*
%TD*%
D16*
%TO.P,D26,1,K*%
%TO.N,GND*%
X96520000Y-78232000D03*
D17*
%TO.P,D26,2,A*%
%TO.N,Net-(D26-Pad2)*%
X99060000Y-78232000D03*
%TD*%
D16*
%TO.P,D25,1,K*%
%TO.N,GND*%
X109474000Y-78232000D03*
D17*
%TO.P,D25,2,A*%
%TO.N,Net-(D25-Pad2)*%
X112014000Y-78232000D03*
%TD*%
D16*
%TO.P,D24,1,K*%
%TO.N,GND*%
X128230000Y-35000000D03*
D17*
%TO.P,D24,2,A*%
%TO.N,Net-(D24-Pad2)*%
X130770000Y-35000000D03*
%TD*%
D16*
%TO.P,D23,1,K*%
%TO.N,GND*%
X128230000Y-45000000D03*
D17*
%TO.P,D23,2,A*%
%TO.N,Net-(D23-Pad2)*%
X130770000Y-45000000D03*
%TD*%
D16*
%TO.P,D22,1,K*%
%TO.N,GND*%
X128230000Y-55000000D03*
D17*
%TO.P,D22,2,A*%
%TO.N,Net-(D22-Pad2)*%
X130770000Y-55000000D03*
%TD*%
D16*
%TO.P,D21,1,K*%
%TO.N,GND*%
X128230000Y-65000000D03*
D17*
%TO.P,D21,2,A*%
%TO.N,Net-(D21-Pad2)*%
X130770000Y-65000000D03*
%TD*%
D16*
%TO.P,D20,1,K*%
%TO.N,GND*%
X23730000Y-55000000D03*
D17*
%TO.P,D20,2,A*%
%TO.N,Net-(D20-Pad2)*%
X26270000Y-55000000D03*
%TD*%
D16*
%TO.P,D19,1,K*%
%TO.N,GND*%
X23730000Y-65000000D03*
D17*
%TO.P,D19,2,A*%
%TO.N,Net-(D19-Pad2)*%
X26270000Y-65000000D03*
%TD*%
D16*
%TO.P,D18,1,K*%
%TO.N,GND*%
X40230000Y-35000000D03*
D17*
%TO.P,D18,2,A*%
%TO.N,Net-(D18-Pad2)*%
X42770000Y-35000000D03*
%TD*%
D16*
%TO.P,D17,1,K*%
%TO.N,GND*%
X40230000Y-45000000D03*
D17*
%TO.P,D17,2,A*%
%TO.N,Net-(D17-Pad2)*%
X42770000Y-45000000D03*
%TD*%
D16*
%TO.P,D16,1,K*%
%TO.N,GND*%
X40230000Y-55000000D03*
D17*
%TO.P,D16,2,A*%
%TO.N,Net-(D16-Pad2)*%
X42770000Y-55000000D03*
%TD*%
D16*
%TO.P,D15,1,K*%
%TO.N,GND*%
X40230000Y-65000000D03*
D17*
%TO.P,D15,2,A*%
%TO.N,Net-(D15-Pad2)*%
X42770000Y-65000000D03*
%TD*%
D16*
%TO.P,D14,1,K*%
%TO.N,GND*%
X61230000Y-45000000D03*
D17*
%TO.P,D14,2,A*%
%TO.N,Net-(D14-Pad2)*%
X63770000Y-45000000D03*
%TD*%
D16*
%TO.P,D13,1,K*%
%TO.N,GND*%
X61230000Y-55000000D03*
D17*
%TO.P,D13,2,A*%
%TO.N,Net-(D13-Pad2)*%
X63770000Y-55000000D03*
%TD*%
D16*
%TO.P,D12,1,K*%
%TO.N,GND*%
X61230000Y-65000000D03*
D17*
%TO.P,D12,2,A*%
%TO.N,Net-(D12-Pad2)*%
X63770000Y-65000000D03*
%TD*%
D16*
%TO.P,D11,1,K*%
%TO.N,GND*%
X75230000Y-35000000D03*
D17*
%TO.P,D11,2,A*%
%TO.N,Net-(D11-Pad2)*%
X77770000Y-35000000D03*
%TD*%
D16*
%TO.P,D10,1,K*%
%TO.N,GND*%
X75230000Y-45000000D03*
D17*
%TO.P,D10,2,A*%
%TO.N,Net-(D10-Pad2)*%
X77770000Y-45000000D03*
%TD*%
D16*
%TO.P,D9,1,K*%
%TO.N,GND*%
X75230000Y-55000000D03*
D17*
%TO.P,D9,2,A*%
%TO.N,Net-(D9-Pad2)*%
X77770000Y-55000000D03*
%TD*%
D16*
%TO.P,D8,1,K*%
%TO.N,GND*%
X75230000Y-65000000D03*
D17*
%TO.P,D8,2,A*%
%TO.N,Net-(D8-Pad2)*%
X77770000Y-65000000D03*
%TD*%
D16*
%TO.P,D7,1,K*%
%TO.N,GND*%
X96230000Y-45000000D03*
D17*
%TO.P,D7,2,A*%
%TO.N,Net-(D7-Pad2)*%
X98770000Y-45000000D03*
%TD*%
D16*
%TO.P,D6,1,K*%
%TO.N,GND*%
X98770000Y-55000000D03*
D17*
%TO.P,D6,2,A*%
%TO.N,Net-(D6-Pad2)*%
X96230000Y-55000000D03*
%TD*%
D16*
%TO.P,D5,1,K*%
%TO.N,GND*%
X96230000Y-65000000D03*
D17*
%TO.P,D5,2,A*%
%TO.N,Net-(D5-Pad2)*%
X98770000Y-65000000D03*
%TD*%
D16*
%TO.P,D4,1,K*%
%TO.N,GND*%
X110230000Y-35000000D03*
D17*
%TO.P,D4,2,A*%
%TO.N,Net-(D4-Pad2)*%
X112770000Y-35000000D03*
%TD*%
D16*
%TO.P,D3,1,K*%
%TO.N,GND*%
X110230000Y-45000000D03*
D17*
%TO.P,D3,2,A*%
%TO.N,Net-(D3-Pad2)*%
X112770000Y-45000000D03*
%TD*%
D16*
%TO.P,D2,1,K*%
%TO.N,GND*%
X110230000Y-55000000D03*
D17*
%TO.P,D2,2,A*%
%TO.N,Net-(D2-Pad2)*%
X112770000Y-55000000D03*
%TD*%
%TO.P,D1,2,A*%
%TO.N,Net-(D1-Pad2)*%
X112770000Y-65000000D03*
D16*
%TO.P,D1,1,K*%
%TO.N,GND*%
X110230000Y-65000000D03*
%TD*%
D18*
%TO.N,Net-(U1-Pad28)*%
X109728000Y-22098000D03*
%TO.N,Net-(U1-Pad26)*%
X67818000Y-31242000D03*
%TO.N,Net-(U1-Pad27)*%
X65786000Y-29464000D03*
%TD*%
D19*
%TO.N,+3V3*%
X15390500Y-35917500D02*
X15390500Y-30017500D01*
X8880000Y-42428000D02*
X15390500Y-35917500D01*
D20*
%TO.N,Net-(U1-Pad28)*%
X24014521Y-23933479D02*
X17930500Y-30017500D01*
X98552000Y-22098000D02*
X96716521Y-23933479D01*
X109728000Y-22098000D02*
X98552000Y-22098000D01*
X96716521Y-23933479D02*
X24014521Y-23933479D01*
D19*
%TO.N,+3V3*%
X8880000Y-42428000D02*
X8880000Y-50307000D01*
D20*
%TO.N,Net-(D6-Pad2)*%
X94234000Y-51054000D02*
X94234000Y-53004000D01*
X94234000Y-53004000D02*
X96230000Y-55000000D01*
X92217000Y-49037000D02*
X94234000Y-51054000D01*
X91176000Y-49037000D02*
X92217000Y-49037000D01*
%TO.N,Net-(D7-Pad2)*%
X97035022Y-47244000D02*
X98770000Y-45509022D01*
X91923000Y-47244000D02*
X97035022Y-47244000D01*
X91176000Y-46497000D02*
X91923000Y-47244000D01*
X98770000Y-45509022D02*
X98770000Y-45000000D01*
%TO.N,Net-(D5-Pad2)*%
X94705489Y-55106489D02*
X91176000Y-51577000D01*
X98770000Y-63718000D02*
X94705489Y-59653489D01*
X94705489Y-59653489D02*
X94705489Y-55106489D01*
X98770000Y-65000000D02*
X98770000Y-63718000D01*
%TO.N,Net-(D14-Pad2)*%
X56363000Y-46736000D02*
X55616000Y-45989000D01*
X62543022Y-46736000D02*
X56363000Y-46736000D01*
X63770000Y-45509022D02*
X62543022Y-46736000D01*
X63770000Y-45000000D02*
X63770000Y-45509022D01*
%TO.N,Net-(D13-Pad2)*%
X58181000Y-48529000D02*
X55616000Y-48529000D01*
X63770000Y-55000000D02*
X63770000Y-54118000D01*
X63770000Y-54118000D02*
X58181000Y-48529000D01*
%TO.N,Net-(D12-Pad2)*%
X56081789Y-52484489D02*
X55616000Y-52484489D01*
X55616000Y-52484489D02*
X55616000Y-51069000D01*
X56740511Y-53692511D02*
X56740511Y-53143211D01*
X63770000Y-60722000D02*
X56740511Y-53692511D01*
X63770000Y-65000000D02*
X63770000Y-60722000D01*
X56740511Y-53143211D02*
X56081789Y-52484489D01*
%TO.N,Net-(D20-Pad2)*%
X26270000Y-53448000D02*
X25669000Y-52847000D01*
X25669000Y-52847000D02*
X16500000Y-52847000D01*
X26270000Y-55000000D02*
X26270000Y-53448000D01*
D19*
%TO.N,+3V3*%
X8367000Y-65547000D02*
X8880000Y-65547000D01*
X7080489Y-64260489D02*
X8367000Y-65547000D01*
X7080489Y-50975141D02*
X7080489Y-64260489D01*
X8880000Y-50307000D02*
X7748630Y-50307000D01*
X7748630Y-50307000D02*
X7080489Y-50975141D01*
X7080489Y-66215141D02*
X7080489Y-74898489D01*
X7748630Y-65547000D02*
X7080489Y-66215141D01*
X8880000Y-65547000D02*
X7748630Y-65547000D01*
X7080489Y-74898489D02*
X28956000Y-96774000D01*
X47513000Y-61229000D02*
X47996000Y-61229000D01*
X46196489Y-59912489D02*
X47513000Y-61229000D01*
X46196489Y-46657141D02*
X46196489Y-59912489D01*
X46864630Y-45989000D02*
X46196489Y-46657141D01*
X47996000Y-45989000D02*
X46864630Y-45989000D01*
X44958000Y-94488000D02*
X42926000Y-96520000D01*
X44958000Y-63135630D02*
X44958000Y-94488000D01*
X47996000Y-61229000D02*
X46864630Y-61229000D01*
X46864630Y-61229000D02*
X44958000Y-63135630D01*
X85355511Y-60440489D02*
X84059000Y-61737000D01*
X84687370Y-46497000D02*
X85355511Y-47165141D01*
X83556000Y-46497000D02*
X84687370Y-46497000D01*
X85355511Y-47165141D02*
X85355511Y-60440489D01*
X84059000Y-61737000D02*
X83556000Y-61737000D01*
X79756000Y-91694000D02*
X75184000Y-96266000D01*
X79756000Y-64405630D02*
X79756000Y-91694000D01*
X82424630Y-61737000D02*
X79756000Y-64405630D01*
X83556000Y-61737000D02*
X82424630Y-61737000D01*
X29210000Y-96520000D02*
X28956000Y-96774000D01*
X42926000Y-96520000D02*
X29210000Y-96520000D01*
X64008000Y-96520000D02*
X64262000Y-96266000D01*
X42926000Y-96520000D02*
X64008000Y-96520000D01*
X75184000Y-96266000D02*
X64262000Y-96266000D01*
X82296000Y-96266000D02*
X83058000Y-97028000D01*
X83058000Y-97028000D02*
X98806000Y-97028000D01*
X75184000Y-96266000D02*
X82296000Y-96266000D01*
X111506000Y-97028000D02*
X98806000Y-97028000D01*
X111506000Y-97028000D02*
X115062000Y-97028000D01*
X115062000Y-97028000D02*
X147320000Y-64770000D01*
X147320000Y-54356000D02*
X147320000Y-64770000D01*
X147320000Y-44958000D02*
X147320000Y-54356000D01*
X147574000Y-34798000D02*
X147574000Y-44704000D01*
X147574000Y-44704000D02*
X147320000Y-44958000D01*
X147574000Y-33528000D02*
X147574000Y-34798000D01*
X141224000Y-27178000D02*
X147574000Y-33528000D01*
D20*
%TO.N,Net-(U1-Pad21)*%
X124714000Y-23368000D02*
X128524000Y-27178000D01*
X101600000Y-23368000D02*
X124714000Y-23368000D01*
X96266000Y-28702000D02*
X101600000Y-23368000D01*
X37338000Y-28702000D02*
X96266000Y-28702000D01*
X31496000Y-34544000D02*
X37338000Y-28702000D01*
X23748282Y-34544000D02*
X31496000Y-34544000D01*
X11234480Y-47057802D02*
X23748282Y-34544000D01*
X11234480Y-53032520D02*
X11234480Y-47057802D01*
X8880000Y-55387000D02*
X11234480Y-53032520D01*
%TO.N,Net-(U1-Pad22)*%
X113018279Y-40143721D02*
X125984000Y-27178000D01*
X58921279Y-40143721D02*
X113018279Y-40143721D01*
X47996000Y-51069000D02*
X58921279Y-40143721D01*
%TO.N,Net-(U1-Pad26)*%
X37084000Y-31242000D02*
X67818000Y-31242000D01*
X32766000Y-35560000D02*
X37084000Y-31242000D01*
X25146000Y-35560000D02*
X32766000Y-35560000D01*
X12954000Y-47752000D02*
X25146000Y-35560000D01*
X12954000Y-58933000D02*
X12954000Y-47752000D01*
X8880000Y-63007000D02*
X12954000Y-58933000D01*
%TO.N,Net-(U1-Pad27)*%
X31750000Y-35052000D02*
X37338000Y-29464000D01*
X11684000Y-47244000D02*
X23876000Y-35052000D01*
X11684000Y-57663000D02*
X11684000Y-47244000D01*
X37338000Y-29464000D02*
X65786000Y-29464000D01*
X8880000Y-60467000D02*
X11684000Y-57663000D01*
X23876000Y-35052000D02*
X31750000Y-35052000D01*
%TO.N,Net-(D19-Pad2)*%
X20081000Y-55387000D02*
X16500000Y-55387000D01*
X21844000Y-57150000D02*
X20081000Y-55387000D01*
X26270000Y-65000000D02*
X26270000Y-59036000D01*
X26270000Y-59036000D02*
X24384000Y-57150000D01*
X24384000Y-57150000D02*
X21844000Y-57150000D01*
%TO.N,Net-(U1-Pad26)*%
X68072000Y-30988000D02*
X112014000Y-30988000D01*
X67818000Y-31242000D02*
X68072000Y-30988000D01*
X112014000Y-30988000D02*
X115824000Y-27178000D01*
%TO.N,Net-(U1-Pad27)*%
X66040000Y-29718000D02*
X110744000Y-29718000D01*
X110744000Y-29718000D02*
X113284000Y-27178000D01*
X65786000Y-29464000D02*
X66040000Y-29718000D01*
%TD*%
M02*
