%TF.GenerationSoftware,KiCad,Pcbnew,(6.0.4)*%
%TF.CreationDate,2023-10-16T18:27:53+02:00*%
%TF.ProjectId,ZB,5a422e6b-6963-4616-945f-706362585858,rev?*%
%TF.SameCoordinates,Original*%
%TF.FileFunction,Soldermask,Bot*%
%TF.FilePolarity,Negative*%
%FSLAX46Y46*%
G04 Gerber Fmt 4.6, Leading zero omitted, Abs format (unit mm)*
G04 Created by KiCad (PCBNEW (6.0.4)) date 2023-10-16 18:27:53*
%MOMM*%
%LPD*%
G01*
G04 APERTURE LIST*
%ADD10R,1.600000X1.600000*%
%ADD11O,1.600000X1.600000*%
%ADD12C,1.924000*%
%ADD13R,1.752600X1.752600*%
%ADD14C,1.752600*%
%ADD15C,3.200000*%
%ADD16C,1.600000*%
%ADD17R,1.800000X1.800000*%
%ADD18C,1.800000*%
G04 APERTURE END LIST*
D10*
%TO.C,U5*%
X16500000Y-50307000D03*
D11*
X16500000Y-52847000D03*
X16500000Y-55387000D03*
X16500000Y-57927000D03*
X16500000Y-60467000D03*
X16500000Y-63007000D03*
X16500000Y-65547000D03*
X16500000Y-68087000D03*
X8880000Y-68087000D03*
X8880000Y-65547000D03*
X8880000Y-63007000D03*
X8880000Y-60467000D03*
X8880000Y-57927000D03*
X8880000Y-55387000D03*
X8880000Y-52847000D03*
X8880000Y-50307000D03*
%TD*%
D10*
%TO.C,U4*%
X55616000Y-45989000D03*
D11*
X55616000Y-48529000D03*
X55616000Y-51069000D03*
X55616000Y-53609000D03*
X55616000Y-56149000D03*
X55616000Y-58689000D03*
X55616000Y-61229000D03*
X55616000Y-63769000D03*
X47996000Y-63769000D03*
X47996000Y-61229000D03*
X47996000Y-58689000D03*
X47996000Y-56149000D03*
X47996000Y-53609000D03*
X47996000Y-51069000D03*
X47996000Y-48529000D03*
X47996000Y-45989000D03*
%TD*%
D10*
%TO.C,U3*%
X91176000Y-46497000D03*
D11*
X91176000Y-49037000D03*
X91176000Y-51577000D03*
X91176000Y-54117000D03*
X91176000Y-56657000D03*
X91176000Y-59197000D03*
X91176000Y-61737000D03*
X91176000Y-64277000D03*
X83556000Y-64277000D03*
X83556000Y-61737000D03*
X83556000Y-59197000D03*
X83556000Y-56657000D03*
X83556000Y-54117000D03*
X83556000Y-51577000D03*
X83556000Y-49037000D03*
X83556000Y-46497000D03*
%TD*%
D12*
%TO.C,U2*%
X11850500Y-5517500D03*
X12850500Y-30017500D03*
X14390500Y-5517500D03*
X16930500Y-5517500D03*
X15390500Y-30017500D03*
X17930500Y-30017500D03*
X19470500Y-5517500D03*
X22010500Y-5517500D03*
X20470500Y-30017500D03*
X23010500Y-30017500D03*
X24550500Y-5517500D03*
X27090500Y-5517500D03*
%TD*%
D13*
%TO.C,U1*%
X105664000Y-4318000D03*
D14*
X108204000Y-4318000D03*
X110744000Y-4318000D03*
X113284000Y-4318000D03*
X115824000Y-4318000D03*
X118364000Y-4318000D03*
X120904000Y-4318000D03*
X123444000Y-4318000D03*
X125984000Y-4318000D03*
X128524000Y-4318000D03*
X131064000Y-4318000D03*
X133604000Y-4318000D03*
X136144000Y-4318000D03*
X138684000Y-4318000D03*
X141224000Y-4318000D03*
X141224000Y-27178000D03*
X138684000Y-27178000D03*
X136144000Y-27178000D03*
X133604000Y-27178000D03*
X131064000Y-27178000D03*
X128524000Y-27178000D03*
X125984000Y-27178000D03*
X123444000Y-27178000D03*
X120904000Y-27178000D03*
X118364000Y-27178000D03*
X115824000Y-27178000D03*
X113284000Y-27178000D03*
X110744000Y-27178000D03*
X108204000Y-27178000D03*
X105664000Y-27178000D03*
D15*
X101854000Y-5588000D03*
X145034000Y-25908000D03*
X101854000Y-25908000D03*
X145034000Y-5588000D03*
%TD*%
D16*
%TO.C,R10*%
X28956000Y-96774000D03*
D11*
X28956000Y-84074000D03*
%TD*%
D16*
%TO.C,R9*%
X42926000Y-96520000D03*
D11*
X42926000Y-83820000D03*
%TD*%
D16*
%TO.C,R8*%
X64262000Y-96266000D03*
D11*
X64262000Y-83566000D03*
%TD*%
D16*
%TO.C,R7*%
X75184000Y-96266000D03*
D11*
X75184000Y-83566000D03*
%TD*%
D16*
%TO.C,R6*%
X98806000Y-97028000D03*
D11*
X98806000Y-84328000D03*
%TD*%
D16*
%TO.C,R5*%
X111506000Y-97028000D03*
D11*
X111506000Y-84328000D03*
%TD*%
D16*
%TO.C,R4*%
X147574000Y-34798000D03*
D11*
X134874000Y-34798000D03*
%TD*%
D16*
%TO.C,R3*%
X147320000Y-44958000D03*
D11*
X134620000Y-44958000D03*
%TD*%
D16*
%TO.C,R2*%
X147320000Y-54356000D03*
D11*
X134620000Y-54356000D03*
%TD*%
D16*
%TO.C,R1*%
X147320000Y-64770000D03*
D11*
X134620000Y-64770000D03*
%TD*%
D17*
%TO.C,D30*%
X26670000Y-78232000D03*
D18*
X29210000Y-78232000D03*
%TD*%
D17*
%TO.C,D29*%
X40386000Y-78232000D03*
D18*
X42926000Y-78232000D03*
%TD*%
D17*
%TO.C,D28*%
X62992000Y-78232000D03*
D18*
X65532000Y-78232000D03*
%TD*%
D17*
%TO.C,D27*%
X73406000Y-78232000D03*
D18*
X75946000Y-78232000D03*
%TD*%
D17*
%TO.C,D26*%
X96520000Y-78232000D03*
D18*
X99060000Y-78232000D03*
%TD*%
D17*
%TO.C,D25*%
X109474000Y-78232000D03*
D18*
X112014000Y-78232000D03*
%TD*%
D17*
%TO.C,D24*%
X128230000Y-35000000D03*
D18*
X130770000Y-35000000D03*
%TD*%
D17*
%TO.C,D23*%
X128230000Y-45000000D03*
D18*
X130770000Y-45000000D03*
%TD*%
D17*
%TO.C,D22*%
X128230000Y-55000000D03*
D18*
X130770000Y-55000000D03*
%TD*%
D17*
%TO.C,D21*%
X128230000Y-65000000D03*
D18*
X130770000Y-65000000D03*
%TD*%
D17*
%TO.C,D20*%
X23730000Y-55000000D03*
D18*
X26270000Y-55000000D03*
%TD*%
D17*
%TO.C,D19*%
X23730000Y-65000000D03*
D18*
X26270000Y-65000000D03*
%TD*%
D17*
%TO.C,D18*%
X40230000Y-35000000D03*
D18*
X42770000Y-35000000D03*
%TD*%
D17*
%TO.C,D17*%
X40230000Y-45000000D03*
D18*
X42770000Y-45000000D03*
%TD*%
D17*
%TO.C,D16*%
X40230000Y-55000000D03*
D18*
X42770000Y-55000000D03*
%TD*%
D17*
%TO.C,D15*%
X40230000Y-65000000D03*
D18*
X42770000Y-65000000D03*
%TD*%
D17*
%TO.C,D14*%
X61230000Y-45000000D03*
D18*
X63770000Y-45000000D03*
%TD*%
D17*
%TO.C,D13*%
X61230000Y-55000000D03*
D18*
X63770000Y-55000000D03*
%TD*%
D17*
%TO.C,D12*%
X61230000Y-65000000D03*
D18*
X63770000Y-65000000D03*
%TD*%
D17*
%TO.C,D11*%
X75230000Y-35000000D03*
D18*
X77770000Y-35000000D03*
%TD*%
D17*
%TO.C,D10*%
X75230000Y-45000000D03*
D18*
X77770000Y-45000000D03*
%TD*%
D17*
%TO.C,D9*%
X75230000Y-55000000D03*
D18*
X77770000Y-55000000D03*
%TD*%
D17*
%TO.C,D8*%
X75230000Y-65000000D03*
D18*
X77770000Y-65000000D03*
%TD*%
D17*
%TO.C,D7*%
X96230000Y-45000000D03*
D18*
X98770000Y-45000000D03*
%TD*%
D17*
%TO.C,D6*%
X98770000Y-55000000D03*
D18*
X96230000Y-55000000D03*
%TD*%
D17*
%TO.C,D5*%
X96230000Y-65000000D03*
D18*
X98770000Y-65000000D03*
%TD*%
D17*
%TO.C,D4*%
X110230000Y-35000000D03*
D18*
X112770000Y-35000000D03*
%TD*%
D17*
%TO.C,D3*%
X110230000Y-45000000D03*
D18*
X112770000Y-45000000D03*
%TD*%
D17*
%TO.C,D2*%
X110230000Y-55000000D03*
D18*
X112770000Y-55000000D03*
%TD*%
%TO.C,D1*%
X112770000Y-65000000D03*
D17*
X110230000Y-65000000D03*
%TD*%
M02*
