%TF.GenerationSoftware,KiCad,Pcbnew,(6.0.4)*%
%TF.CreationDate,2023-10-16T18:27:53+02:00*%
%TF.ProjectId,ZB,5a422e6b-6963-4616-945f-706362585858,rev?*%
%TF.SameCoordinates,Original*%
%TF.FileFunction,Legend,Bot*%
%TF.FilePolarity,Positive*%
%FSLAX46Y46*%
G04 Gerber Fmt 4.6, Leading zero omitted, Abs format (unit mm)*
G04 Created by KiCad (PCBNEW (6.0.4)) date 2023-10-16 18:27:53*
%MOMM*%
%LPD*%
G01*
G04 APERTURE LIST*
%ADD10C,0.150000*%
%ADD11C,0.050000*%
%ADD12C,0.120000*%
%ADD13C,0.127000*%
%ADD14C,0.200000*%
G04 APERTURE END LIST*
D10*
%TO.C,U5*%
X13451904Y-47429380D02*
X13451904Y-48238904D01*
X13404285Y-48334142D01*
X13356666Y-48381761D01*
X13261428Y-48429380D01*
X13070952Y-48429380D01*
X12975714Y-48381761D01*
X12928095Y-48334142D01*
X12880476Y-48238904D01*
X12880476Y-47429380D01*
X11928095Y-47429380D02*
X12404285Y-47429380D01*
X12451904Y-47905571D01*
X12404285Y-47857952D01*
X12309047Y-47810333D01*
X12070952Y-47810333D01*
X11975714Y-47857952D01*
X11928095Y-47905571D01*
X11880476Y-48000809D01*
X11880476Y-48238904D01*
X11928095Y-48334142D01*
X11975714Y-48381761D01*
X12070952Y-48429380D01*
X12309047Y-48429380D01*
X12404285Y-48381761D01*
X12451904Y-48334142D01*
%TO.C,U4*%
X52567904Y-43111380D02*
X52567904Y-43920904D01*
X52520285Y-44016142D01*
X52472666Y-44063761D01*
X52377428Y-44111380D01*
X52186952Y-44111380D01*
X52091714Y-44063761D01*
X52044095Y-44016142D01*
X51996476Y-43920904D01*
X51996476Y-43111380D01*
X51091714Y-43444714D02*
X51091714Y-44111380D01*
X51329809Y-43063761D02*
X51567904Y-43778047D01*
X50948857Y-43778047D01*
%TO.C,U3*%
X88127904Y-43619380D02*
X88127904Y-44428904D01*
X88080285Y-44524142D01*
X88032666Y-44571761D01*
X87937428Y-44619380D01*
X87746952Y-44619380D01*
X87651714Y-44571761D01*
X87604095Y-44524142D01*
X87556476Y-44428904D01*
X87556476Y-43619380D01*
X87175523Y-43619380D02*
X86556476Y-43619380D01*
X86889809Y-44000333D01*
X86746952Y-44000333D01*
X86651714Y-44047952D01*
X86604095Y-44095571D01*
X86556476Y-44190809D01*
X86556476Y-44428904D01*
X86604095Y-44524142D01*
X86651714Y-44571761D01*
X86746952Y-44619380D01*
X87032666Y-44619380D01*
X87127904Y-44571761D01*
X87175523Y-44524142D01*
%TO.C,U2*%
X4398119Y-35843404D02*
X3588595Y-35843404D01*
X3493357Y-35795785D01*
X3445738Y-35748166D01*
X3398119Y-35652928D01*
X3398119Y-35462452D01*
X3445738Y-35367214D01*
X3493357Y-35319595D01*
X3588595Y-35271976D01*
X4398119Y-35271976D01*
X4302880Y-34843404D02*
X4350500Y-34795785D01*
X4398119Y-34700547D01*
X4398119Y-34462452D01*
X4350500Y-34367214D01*
X4302880Y-34319595D01*
X4207642Y-34271976D01*
X4112404Y-34271976D01*
X3969547Y-34319595D01*
X3398119Y-34891023D01*
X3398119Y-34271976D01*
D11*
%TO.C,U1*%
X97261380Y-5026095D02*
X98070904Y-5026095D01*
X98166142Y-5073714D01*
X98213761Y-5121333D01*
X98261380Y-5216571D01*
X98261380Y-5407047D01*
X98213761Y-5502285D01*
X98166142Y-5549904D01*
X98070904Y-5597523D01*
X97261380Y-5597523D01*
X98261380Y-6597523D02*
X98261380Y-6026095D01*
X98261380Y-6311809D02*
X97261380Y-6311809D01*
X97404238Y-6216571D01*
X97499476Y-6121333D01*
X97547095Y-6026095D01*
X148531380Y-2732523D02*
X148531380Y-3399190D01*
X149531380Y-2732523D01*
X149531380Y-3399190D01*
X149436142Y-4351571D02*
X149483761Y-4303952D01*
X149531380Y-4161095D01*
X149531380Y-4065857D01*
X149483761Y-3923000D01*
X149388523Y-3827761D01*
X149293285Y-3780142D01*
X149102809Y-3732523D01*
X148959952Y-3732523D01*
X148769476Y-3780142D01*
X148674238Y-3827761D01*
X148579000Y-3923000D01*
X148531380Y-4065857D01*
X148531380Y-4161095D01*
X148579000Y-4303952D01*
X148626619Y-4351571D01*
X148531380Y-5256333D02*
X148531380Y-4780142D01*
X149007571Y-4732523D01*
X148959952Y-4780142D01*
X148912333Y-4875380D01*
X148912333Y-5113476D01*
X148959952Y-5208714D01*
X149007571Y-5256333D01*
X149102809Y-5303952D01*
X149340904Y-5303952D01*
X149436142Y-5256333D01*
X149483761Y-5208714D01*
X149531380Y-5113476D01*
X149531380Y-4875380D01*
X149483761Y-4780142D01*
X149436142Y-4732523D01*
X148531380Y-6161095D02*
X148531380Y-5970619D01*
X148579000Y-5875380D01*
X148626619Y-5827761D01*
X148769476Y-5732523D01*
X148959952Y-5684904D01*
X149340904Y-5684904D01*
X149436142Y-5732523D01*
X149483761Y-5780142D01*
X149531380Y-5875380D01*
X149531380Y-6065857D01*
X149483761Y-6161095D01*
X149436142Y-6208714D01*
X149340904Y-6256333D01*
X149102809Y-6256333D01*
X149007571Y-6208714D01*
X148959952Y-6161095D01*
X148912333Y-6065857D01*
X148912333Y-5875380D01*
X148959952Y-5780142D01*
X149007571Y-5732523D01*
X149102809Y-5684904D01*
X148531380Y-6589666D02*
X148531380Y-7208714D01*
X148912333Y-6875380D01*
X148912333Y-7018238D01*
X148959952Y-7113476D01*
X149007571Y-7161095D01*
X149102809Y-7208714D01*
X149340904Y-7208714D01*
X149436142Y-7161095D01*
X149483761Y-7113476D01*
X149531380Y-7018238D01*
X149531380Y-6732523D01*
X149483761Y-6637285D01*
X149436142Y-6589666D01*
X149531380Y-7684904D02*
X149531380Y-7875380D01*
X149483761Y-7970619D01*
X149436142Y-8018238D01*
X149293285Y-8113476D01*
X149102809Y-8161095D01*
X148721857Y-8161095D01*
X148626619Y-8113476D01*
X148579000Y-8065857D01*
X148531380Y-7970619D01*
X148531380Y-7780142D01*
X148579000Y-7684904D01*
X148626619Y-7637285D01*
X148721857Y-7589666D01*
X148959952Y-7589666D01*
X149055190Y-7637285D01*
X149102809Y-7684904D01*
X149150428Y-7780142D01*
X149150428Y-7970619D01*
X149102809Y-8065857D01*
X149055190Y-8113476D01*
X148959952Y-8161095D01*
X148531380Y-8780142D02*
X148531380Y-8875380D01*
X148579000Y-8970619D01*
X148626619Y-9018238D01*
X148721857Y-9065857D01*
X148912333Y-9113476D01*
X149150428Y-9113476D01*
X149340904Y-9065857D01*
X149436142Y-9018238D01*
X149483761Y-8970619D01*
X149531380Y-8875380D01*
X149531380Y-8780142D01*
X149483761Y-8684904D01*
X149436142Y-8637285D01*
X149340904Y-8589666D01*
X149150428Y-8542047D01*
X148912333Y-8542047D01*
X148721857Y-8589666D01*
X148626619Y-8637285D01*
X148579000Y-8684904D01*
X148531380Y-8780142D01*
X148531380Y-9732523D02*
X148531380Y-9827761D01*
X148579000Y-9923000D01*
X148626619Y-9970619D01*
X148721857Y-10018238D01*
X148912333Y-10065857D01*
X149150428Y-10065857D01*
X149340904Y-10018238D01*
X149436142Y-9970619D01*
X149483761Y-9923000D01*
X149531380Y-9827761D01*
X149531380Y-9732523D01*
X149483761Y-9637285D01*
X149436142Y-9589666D01*
X149340904Y-9542047D01*
X149150428Y-9494428D01*
X148912333Y-9494428D01*
X148721857Y-9542047D01*
X148626619Y-9589666D01*
X148579000Y-9637285D01*
X148531380Y-9732523D01*
D10*
%TO.C,R10*%
X32128380Y-89781142D02*
X31652190Y-89447809D01*
X32128380Y-89209714D02*
X31128380Y-89209714D01*
X31128380Y-89590666D01*
X31176000Y-89685904D01*
X31223619Y-89733523D01*
X31318857Y-89781142D01*
X31461714Y-89781142D01*
X31556952Y-89733523D01*
X31604571Y-89685904D01*
X31652190Y-89590666D01*
X31652190Y-89209714D01*
X32128380Y-90733523D02*
X32128380Y-90162095D01*
X32128380Y-90447809D02*
X31128380Y-90447809D01*
X31271238Y-90352571D01*
X31366476Y-90257333D01*
X31414095Y-90162095D01*
X31128380Y-91352571D02*
X31128380Y-91447809D01*
X31176000Y-91543047D01*
X31223619Y-91590666D01*
X31318857Y-91638285D01*
X31509333Y-91685904D01*
X31747428Y-91685904D01*
X31937904Y-91638285D01*
X32033142Y-91590666D01*
X32080761Y-91543047D01*
X32128380Y-91447809D01*
X32128380Y-91352571D01*
X32080761Y-91257333D01*
X32033142Y-91209714D01*
X31937904Y-91162095D01*
X31747428Y-91114476D01*
X31509333Y-91114476D01*
X31318857Y-91162095D01*
X31223619Y-91209714D01*
X31176000Y-91257333D01*
X31128380Y-91352571D01*
%TO.C,R9*%
X46098380Y-90003333D02*
X45622190Y-89670000D01*
X46098380Y-89431904D02*
X45098380Y-89431904D01*
X45098380Y-89812857D01*
X45146000Y-89908095D01*
X45193619Y-89955714D01*
X45288857Y-90003333D01*
X45431714Y-90003333D01*
X45526952Y-89955714D01*
X45574571Y-89908095D01*
X45622190Y-89812857D01*
X45622190Y-89431904D01*
X46098380Y-90479523D02*
X46098380Y-90670000D01*
X46050761Y-90765238D01*
X46003142Y-90812857D01*
X45860285Y-90908095D01*
X45669809Y-90955714D01*
X45288857Y-90955714D01*
X45193619Y-90908095D01*
X45146000Y-90860476D01*
X45098380Y-90765238D01*
X45098380Y-90574761D01*
X45146000Y-90479523D01*
X45193619Y-90431904D01*
X45288857Y-90384285D01*
X45526952Y-90384285D01*
X45622190Y-90431904D01*
X45669809Y-90479523D01*
X45717428Y-90574761D01*
X45717428Y-90765238D01*
X45669809Y-90860476D01*
X45622190Y-90908095D01*
X45526952Y-90955714D01*
%TO.C,R8*%
X67434380Y-89749333D02*
X66958190Y-89416000D01*
X67434380Y-89177904D02*
X66434380Y-89177904D01*
X66434380Y-89558857D01*
X66482000Y-89654095D01*
X66529619Y-89701714D01*
X66624857Y-89749333D01*
X66767714Y-89749333D01*
X66862952Y-89701714D01*
X66910571Y-89654095D01*
X66958190Y-89558857D01*
X66958190Y-89177904D01*
X66862952Y-90320761D02*
X66815333Y-90225523D01*
X66767714Y-90177904D01*
X66672476Y-90130285D01*
X66624857Y-90130285D01*
X66529619Y-90177904D01*
X66482000Y-90225523D01*
X66434380Y-90320761D01*
X66434380Y-90511238D01*
X66482000Y-90606476D01*
X66529619Y-90654095D01*
X66624857Y-90701714D01*
X66672476Y-90701714D01*
X66767714Y-90654095D01*
X66815333Y-90606476D01*
X66862952Y-90511238D01*
X66862952Y-90320761D01*
X66910571Y-90225523D01*
X66958190Y-90177904D01*
X67053428Y-90130285D01*
X67243904Y-90130285D01*
X67339142Y-90177904D01*
X67386761Y-90225523D01*
X67434380Y-90320761D01*
X67434380Y-90511238D01*
X67386761Y-90606476D01*
X67339142Y-90654095D01*
X67243904Y-90701714D01*
X67053428Y-90701714D01*
X66958190Y-90654095D01*
X66910571Y-90606476D01*
X66862952Y-90511238D01*
%TO.C,R7*%
X78356380Y-89749333D02*
X77880190Y-89416000D01*
X78356380Y-89177904D02*
X77356380Y-89177904D01*
X77356380Y-89558857D01*
X77404000Y-89654095D01*
X77451619Y-89701714D01*
X77546857Y-89749333D01*
X77689714Y-89749333D01*
X77784952Y-89701714D01*
X77832571Y-89654095D01*
X77880190Y-89558857D01*
X77880190Y-89177904D01*
X77356380Y-90082666D02*
X77356380Y-90749333D01*
X78356380Y-90320761D01*
%TO.C,R6*%
X101978380Y-90511333D02*
X101502190Y-90178000D01*
X101978380Y-89939904D02*
X100978380Y-89939904D01*
X100978380Y-90320857D01*
X101026000Y-90416095D01*
X101073619Y-90463714D01*
X101168857Y-90511333D01*
X101311714Y-90511333D01*
X101406952Y-90463714D01*
X101454571Y-90416095D01*
X101502190Y-90320857D01*
X101502190Y-89939904D01*
X100978380Y-91368476D02*
X100978380Y-91178000D01*
X101026000Y-91082761D01*
X101073619Y-91035142D01*
X101216476Y-90939904D01*
X101406952Y-90892285D01*
X101787904Y-90892285D01*
X101883142Y-90939904D01*
X101930761Y-90987523D01*
X101978380Y-91082761D01*
X101978380Y-91273238D01*
X101930761Y-91368476D01*
X101883142Y-91416095D01*
X101787904Y-91463714D01*
X101549809Y-91463714D01*
X101454571Y-91416095D01*
X101406952Y-91368476D01*
X101359333Y-91273238D01*
X101359333Y-91082761D01*
X101406952Y-90987523D01*
X101454571Y-90939904D01*
X101549809Y-90892285D01*
%TO.C,R5*%
X114678380Y-90511333D02*
X114202190Y-90178000D01*
X114678380Y-89939904D02*
X113678380Y-89939904D01*
X113678380Y-90320857D01*
X113726000Y-90416095D01*
X113773619Y-90463714D01*
X113868857Y-90511333D01*
X114011714Y-90511333D01*
X114106952Y-90463714D01*
X114154571Y-90416095D01*
X114202190Y-90320857D01*
X114202190Y-89939904D01*
X113678380Y-91416095D02*
X113678380Y-90939904D01*
X114154571Y-90892285D01*
X114106952Y-90939904D01*
X114059333Y-91035142D01*
X114059333Y-91273238D01*
X114106952Y-91368476D01*
X114154571Y-91416095D01*
X114249809Y-91463714D01*
X114487904Y-91463714D01*
X114583142Y-91416095D01*
X114630761Y-91368476D01*
X114678380Y-91273238D01*
X114678380Y-91035142D01*
X114630761Y-90939904D01*
X114583142Y-90892285D01*
%TO.C,R4*%
X141390666Y-32530380D02*
X141724000Y-32054190D01*
X141962095Y-32530380D02*
X141962095Y-31530380D01*
X141581142Y-31530380D01*
X141485904Y-31578000D01*
X141438285Y-31625619D01*
X141390666Y-31720857D01*
X141390666Y-31863714D01*
X141438285Y-31958952D01*
X141485904Y-32006571D01*
X141581142Y-32054190D01*
X141962095Y-32054190D01*
X140533523Y-31863714D02*
X140533523Y-32530380D01*
X140771619Y-31482761D02*
X141009714Y-32197047D01*
X140390666Y-32197047D01*
%TO.C,R3*%
X141136666Y-42690380D02*
X141470000Y-42214190D01*
X141708095Y-42690380D02*
X141708095Y-41690380D01*
X141327142Y-41690380D01*
X141231904Y-41738000D01*
X141184285Y-41785619D01*
X141136666Y-41880857D01*
X141136666Y-42023714D01*
X141184285Y-42118952D01*
X141231904Y-42166571D01*
X141327142Y-42214190D01*
X141708095Y-42214190D01*
X140803333Y-41690380D02*
X140184285Y-41690380D01*
X140517619Y-42071333D01*
X140374761Y-42071333D01*
X140279523Y-42118952D01*
X140231904Y-42166571D01*
X140184285Y-42261809D01*
X140184285Y-42499904D01*
X140231904Y-42595142D01*
X140279523Y-42642761D01*
X140374761Y-42690380D01*
X140660476Y-42690380D01*
X140755714Y-42642761D01*
X140803333Y-42595142D01*
%TO.C,R2*%
X141136666Y-52088380D02*
X141470000Y-51612190D01*
X141708095Y-52088380D02*
X141708095Y-51088380D01*
X141327142Y-51088380D01*
X141231904Y-51136000D01*
X141184285Y-51183619D01*
X141136666Y-51278857D01*
X141136666Y-51421714D01*
X141184285Y-51516952D01*
X141231904Y-51564571D01*
X141327142Y-51612190D01*
X141708095Y-51612190D01*
X140755714Y-51183619D02*
X140708095Y-51136000D01*
X140612857Y-51088380D01*
X140374761Y-51088380D01*
X140279523Y-51136000D01*
X140231904Y-51183619D01*
X140184285Y-51278857D01*
X140184285Y-51374095D01*
X140231904Y-51516952D01*
X140803333Y-52088380D01*
X140184285Y-52088380D01*
%TO.C,R1*%
X141136666Y-62502380D02*
X141470000Y-62026190D01*
X141708095Y-62502380D02*
X141708095Y-61502380D01*
X141327142Y-61502380D01*
X141231904Y-61550000D01*
X141184285Y-61597619D01*
X141136666Y-61692857D01*
X141136666Y-61835714D01*
X141184285Y-61930952D01*
X141231904Y-61978571D01*
X141327142Y-62026190D01*
X141708095Y-62026190D01*
X140184285Y-62502380D02*
X140755714Y-62502380D01*
X140470000Y-62502380D02*
X140470000Y-61502380D01*
X140565238Y-61645238D01*
X140660476Y-61740476D01*
X140755714Y-61788095D01*
D12*
%TO.C,U5*%
X10040000Y-48977000D02*
X11690000Y-48977000D01*
X15340000Y-48977000D02*
X15340000Y-69417000D01*
X10040000Y-69417000D02*
X10040000Y-48977000D01*
X15340000Y-69417000D02*
X10040000Y-69417000D01*
X13690000Y-48977000D02*
X15340000Y-48977000D01*
X11690000Y-48977000D02*
G75*
G03*
X13690000Y-48977000I1000000J0D01*
G01*
%TO.C,U4*%
X49156000Y-44659000D02*
X50806000Y-44659000D01*
X54456000Y-44659000D02*
X54456000Y-65099000D01*
X49156000Y-65099000D02*
X49156000Y-44659000D01*
X54456000Y-65099000D02*
X49156000Y-65099000D01*
X52806000Y-44659000D02*
X54456000Y-44659000D01*
X50806000Y-44659000D02*
G75*
G03*
X52806000Y-44659000I1000000J0D01*
G01*
%TO.C,U3*%
X84716000Y-45167000D02*
X86366000Y-45167000D01*
X90016000Y-45167000D02*
X90016000Y-65607000D01*
X84716000Y-65607000D02*
X84716000Y-45167000D01*
X90016000Y-65607000D02*
X84716000Y-65607000D01*
X88366000Y-45167000D02*
X90016000Y-45167000D01*
X86366000Y-45167000D02*
G75*
G03*
X88366000Y-45167000I1000000J0D01*
G01*
%TO.C,U2*%
X31850500Y-4417500D02*
X28150500Y-4417500D01*
X4850500Y-31117500D02*
X31850500Y-31117500D01*
X31850500Y-31117500D02*
X31850500Y-4417500D01*
X31850500Y-4417500D02*
X4850500Y-4417500D01*
X4850500Y-4417500D02*
X4850500Y-31117500D01*
D13*
%TO.C,U1*%
X147574000Y-3048000D02*
X99314000Y-3048000D01*
X99314000Y-28448000D02*
X147574000Y-28448000D01*
X99314000Y-3048000D02*
X99314000Y-28448000D01*
X147574000Y-3048000D02*
X147574000Y-28448000D01*
D14*
X105544000Y-2498000D02*
G75*
G03*
X105544000Y-2498000I-100000J0D01*
G01*
D12*
%TO.C,R10*%
X30676000Y-95044000D02*
X27236000Y-95044000D01*
X28956000Y-95734000D02*
X28956000Y-95044000D01*
X28956000Y-85114000D02*
X28956000Y-85804000D01*
X27236000Y-85804000D02*
X30676000Y-85804000D01*
X27236000Y-95044000D02*
X27236000Y-85804000D01*
X30676000Y-85804000D02*
X30676000Y-95044000D01*
%TO.C,R9*%
X44646000Y-94790000D02*
X41206000Y-94790000D01*
X42926000Y-95480000D02*
X42926000Y-94790000D01*
X42926000Y-84860000D02*
X42926000Y-85550000D01*
X41206000Y-85550000D02*
X44646000Y-85550000D01*
X41206000Y-94790000D02*
X41206000Y-85550000D01*
X44646000Y-85550000D02*
X44646000Y-94790000D01*
%TO.C,R8*%
X65982000Y-94536000D02*
X62542000Y-94536000D01*
X64262000Y-95226000D02*
X64262000Y-94536000D01*
X64262000Y-84606000D02*
X64262000Y-85296000D01*
X62542000Y-85296000D02*
X65982000Y-85296000D01*
X62542000Y-94536000D02*
X62542000Y-85296000D01*
X65982000Y-85296000D02*
X65982000Y-94536000D01*
%TO.C,R7*%
X76904000Y-94536000D02*
X73464000Y-94536000D01*
X75184000Y-95226000D02*
X75184000Y-94536000D01*
X75184000Y-84606000D02*
X75184000Y-85296000D01*
X73464000Y-85296000D02*
X76904000Y-85296000D01*
X73464000Y-94536000D02*
X73464000Y-85296000D01*
X76904000Y-85296000D02*
X76904000Y-94536000D01*
%TO.C,R6*%
X100526000Y-95298000D02*
X97086000Y-95298000D01*
X98806000Y-95988000D02*
X98806000Y-95298000D01*
X98806000Y-85368000D02*
X98806000Y-86058000D01*
X97086000Y-86058000D02*
X100526000Y-86058000D01*
X97086000Y-95298000D02*
X97086000Y-86058000D01*
X100526000Y-86058000D02*
X100526000Y-95298000D01*
%TO.C,R5*%
X113226000Y-95298000D02*
X109786000Y-95298000D01*
X111506000Y-95988000D02*
X111506000Y-95298000D01*
X111506000Y-85368000D02*
X111506000Y-86058000D01*
X109786000Y-86058000D02*
X113226000Y-86058000D01*
X109786000Y-95298000D02*
X109786000Y-86058000D01*
X113226000Y-86058000D02*
X113226000Y-95298000D01*
%TO.C,R4*%
X145844000Y-33078000D02*
X145844000Y-36518000D01*
X146534000Y-34798000D02*
X145844000Y-34798000D01*
X135914000Y-34798000D02*
X136604000Y-34798000D01*
X136604000Y-36518000D02*
X136604000Y-33078000D01*
X145844000Y-36518000D02*
X136604000Y-36518000D01*
X136604000Y-33078000D02*
X145844000Y-33078000D01*
%TO.C,R3*%
X145590000Y-43238000D02*
X145590000Y-46678000D01*
X146280000Y-44958000D02*
X145590000Y-44958000D01*
X135660000Y-44958000D02*
X136350000Y-44958000D01*
X136350000Y-46678000D02*
X136350000Y-43238000D01*
X145590000Y-46678000D02*
X136350000Y-46678000D01*
X136350000Y-43238000D02*
X145590000Y-43238000D01*
%TO.C,R2*%
X145590000Y-52636000D02*
X145590000Y-56076000D01*
X146280000Y-54356000D02*
X145590000Y-54356000D01*
X135660000Y-54356000D02*
X136350000Y-54356000D01*
X136350000Y-56076000D02*
X136350000Y-52636000D01*
X145590000Y-56076000D02*
X136350000Y-56076000D01*
X136350000Y-52636000D02*
X145590000Y-52636000D01*
%TO.C,R1*%
X145590000Y-63050000D02*
X145590000Y-66490000D01*
X146280000Y-64770000D02*
X145590000Y-64770000D01*
X135660000Y-64770000D02*
X136350000Y-64770000D01*
X136350000Y-66490000D02*
X136350000Y-63050000D01*
X145590000Y-66490000D02*
X136350000Y-66490000D01*
X136350000Y-63050000D02*
X145590000Y-63050000D01*
%TD*%
M02*
