%TF.GenerationSoftware,KiCad,Pcbnew,(6.0.4)*%
%TF.CreationDate,2023-10-16T18:27:53+02:00*%
%TF.ProjectId,ZB,5a422e6b-6963-4616-945f-706362585858,rev?*%
%TF.SameCoordinates,Original*%
%TF.FileFunction,Legend,Top*%
%TF.FilePolarity,Positive*%
%FSLAX46Y46*%
G04 Gerber Fmt 4.6, Leading zero omitted, Abs format (unit mm)*
G04 Created by KiCad (PCBNEW (6.0.4)) date 2023-10-16 18:27:53*
%MOMM*%
%LPD*%
G01*
G04 APERTURE LIST*
%ADD10C,0.150000*%
%ADD11C,0.120000*%
G04 APERTURE END LIST*
D10*
%TO.C,D30*%
X23525714Y-84284380D02*
X23525714Y-83284380D01*
X23763809Y-83284380D01*
X23906666Y-83332000D01*
X24001904Y-83427238D01*
X24049523Y-83522476D01*
X24097142Y-83712952D01*
X24097142Y-83855809D01*
X24049523Y-84046285D01*
X24001904Y-84141523D01*
X23906666Y-84236761D01*
X23763809Y-84284380D01*
X23525714Y-84284380D01*
X24430476Y-83284380D02*
X25049523Y-83284380D01*
X24716190Y-83665333D01*
X24859047Y-83665333D01*
X24954285Y-83712952D01*
X25001904Y-83760571D01*
X25049523Y-83855809D01*
X25049523Y-84093904D01*
X25001904Y-84189142D01*
X24954285Y-84236761D01*
X24859047Y-84284380D01*
X24573333Y-84284380D01*
X24478095Y-84236761D01*
X24430476Y-84189142D01*
X25668571Y-83284380D02*
X25763809Y-83284380D01*
X25859047Y-83332000D01*
X25906666Y-83379619D01*
X25954285Y-83474857D01*
X26001904Y-83665333D01*
X26001904Y-83903428D01*
X25954285Y-84093904D01*
X25906666Y-84189142D01*
X25859047Y-84236761D01*
X25763809Y-84284380D01*
X25668571Y-84284380D01*
X25573333Y-84236761D01*
X25525714Y-84189142D01*
X25478095Y-84093904D01*
X25430476Y-83903428D01*
X25430476Y-83665333D01*
X25478095Y-83474857D01*
X25525714Y-83379619D01*
X25573333Y-83332000D01*
X25668571Y-83284380D01*
%TO.C,D29*%
X37241714Y-84284380D02*
X37241714Y-83284380D01*
X37479809Y-83284380D01*
X37622666Y-83332000D01*
X37717904Y-83427238D01*
X37765523Y-83522476D01*
X37813142Y-83712952D01*
X37813142Y-83855809D01*
X37765523Y-84046285D01*
X37717904Y-84141523D01*
X37622666Y-84236761D01*
X37479809Y-84284380D01*
X37241714Y-84284380D01*
X38194095Y-83379619D02*
X38241714Y-83332000D01*
X38336952Y-83284380D01*
X38575047Y-83284380D01*
X38670285Y-83332000D01*
X38717904Y-83379619D01*
X38765523Y-83474857D01*
X38765523Y-83570095D01*
X38717904Y-83712952D01*
X38146476Y-84284380D01*
X38765523Y-84284380D01*
X39241714Y-84284380D02*
X39432190Y-84284380D01*
X39527428Y-84236761D01*
X39575047Y-84189142D01*
X39670285Y-84046285D01*
X39717904Y-83855809D01*
X39717904Y-83474857D01*
X39670285Y-83379619D01*
X39622666Y-83332000D01*
X39527428Y-83284380D01*
X39336952Y-83284380D01*
X39241714Y-83332000D01*
X39194095Y-83379619D01*
X39146476Y-83474857D01*
X39146476Y-83712952D01*
X39194095Y-83808190D01*
X39241714Y-83855809D01*
X39336952Y-83903428D01*
X39527428Y-83903428D01*
X39622666Y-83855809D01*
X39670285Y-83808190D01*
X39717904Y-83712952D01*
%TO.C,D28*%
X59847714Y-84284380D02*
X59847714Y-83284380D01*
X60085809Y-83284380D01*
X60228666Y-83332000D01*
X60323904Y-83427238D01*
X60371523Y-83522476D01*
X60419142Y-83712952D01*
X60419142Y-83855809D01*
X60371523Y-84046285D01*
X60323904Y-84141523D01*
X60228666Y-84236761D01*
X60085809Y-84284380D01*
X59847714Y-84284380D01*
X60800095Y-83379619D02*
X60847714Y-83332000D01*
X60942952Y-83284380D01*
X61181047Y-83284380D01*
X61276285Y-83332000D01*
X61323904Y-83379619D01*
X61371523Y-83474857D01*
X61371523Y-83570095D01*
X61323904Y-83712952D01*
X60752476Y-84284380D01*
X61371523Y-84284380D01*
X61942952Y-83712952D02*
X61847714Y-83665333D01*
X61800095Y-83617714D01*
X61752476Y-83522476D01*
X61752476Y-83474857D01*
X61800095Y-83379619D01*
X61847714Y-83332000D01*
X61942952Y-83284380D01*
X62133428Y-83284380D01*
X62228666Y-83332000D01*
X62276285Y-83379619D01*
X62323904Y-83474857D01*
X62323904Y-83522476D01*
X62276285Y-83617714D01*
X62228666Y-83665333D01*
X62133428Y-83712952D01*
X61942952Y-83712952D01*
X61847714Y-83760571D01*
X61800095Y-83808190D01*
X61752476Y-83903428D01*
X61752476Y-84093904D01*
X61800095Y-84189142D01*
X61847714Y-84236761D01*
X61942952Y-84284380D01*
X62133428Y-84284380D01*
X62228666Y-84236761D01*
X62276285Y-84189142D01*
X62323904Y-84093904D01*
X62323904Y-83903428D01*
X62276285Y-83808190D01*
X62228666Y-83760571D01*
X62133428Y-83712952D01*
%TO.C,D27*%
X70261714Y-84284380D02*
X70261714Y-83284380D01*
X70499809Y-83284380D01*
X70642666Y-83332000D01*
X70737904Y-83427238D01*
X70785523Y-83522476D01*
X70833142Y-83712952D01*
X70833142Y-83855809D01*
X70785523Y-84046285D01*
X70737904Y-84141523D01*
X70642666Y-84236761D01*
X70499809Y-84284380D01*
X70261714Y-84284380D01*
X71214095Y-83379619D02*
X71261714Y-83332000D01*
X71356952Y-83284380D01*
X71595047Y-83284380D01*
X71690285Y-83332000D01*
X71737904Y-83379619D01*
X71785523Y-83474857D01*
X71785523Y-83570095D01*
X71737904Y-83712952D01*
X71166476Y-84284380D01*
X71785523Y-84284380D01*
X72118857Y-83284380D02*
X72785523Y-83284380D01*
X72356952Y-84284380D01*
%TO.C,D26*%
X93375714Y-84284380D02*
X93375714Y-83284380D01*
X93613809Y-83284380D01*
X93756666Y-83332000D01*
X93851904Y-83427238D01*
X93899523Y-83522476D01*
X93947142Y-83712952D01*
X93947142Y-83855809D01*
X93899523Y-84046285D01*
X93851904Y-84141523D01*
X93756666Y-84236761D01*
X93613809Y-84284380D01*
X93375714Y-84284380D01*
X94328095Y-83379619D02*
X94375714Y-83332000D01*
X94470952Y-83284380D01*
X94709047Y-83284380D01*
X94804285Y-83332000D01*
X94851904Y-83379619D01*
X94899523Y-83474857D01*
X94899523Y-83570095D01*
X94851904Y-83712952D01*
X94280476Y-84284380D01*
X94899523Y-84284380D01*
X95756666Y-83284380D02*
X95566190Y-83284380D01*
X95470952Y-83332000D01*
X95423333Y-83379619D01*
X95328095Y-83522476D01*
X95280476Y-83712952D01*
X95280476Y-84093904D01*
X95328095Y-84189142D01*
X95375714Y-84236761D01*
X95470952Y-84284380D01*
X95661428Y-84284380D01*
X95756666Y-84236761D01*
X95804285Y-84189142D01*
X95851904Y-84093904D01*
X95851904Y-83855809D01*
X95804285Y-83760571D01*
X95756666Y-83712952D01*
X95661428Y-83665333D01*
X95470952Y-83665333D01*
X95375714Y-83712952D01*
X95328095Y-83760571D01*
X95280476Y-83855809D01*
%TO.C,D25*%
X106329714Y-84284380D02*
X106329714Y-83284380D01*
X106567809Y-83284380D01*
X106710666Y-83332000D01*
X106805904Y-83427238D01*
X106853523Y-83522476D01*
X106901142Y-83712952D01*
X106901142Y-83855809D01*
X106853523Y-84046285D01*
X106805904Y-84141523D01*
X106710666Y-84236761D01*
X106567809Y-84284380D01*
X106329714Y-84284380D01*
X107282095Y-83379619D02*
X107329714Y-83332000D01*
X107424952Y-83284380D01*
X107663047Y-83284380D01*
X107758285Y-83332000D01*
X107805904Y-83379619D01*
X107853523Y-83474857D01*
X107853523Y-83570095D01*
X107805904Y-83712952D01*
X107234476Y-84284380D01*
X107853523Y-84284380D01*
X108758285Y-83284380D02*
X108282095Y-83284380D01*
X108234476Y-83760571D01*
X108282095Y-83712952D01*
X108377333Y-83665333D01*
X108615428Y-83665333D01*
X108710666Y-83712952D01*
X108758285Y-83760571D01*
X108805904Y-83855809D01*
X108805904Y-84093904D01*
X108758285Y-84189142D01*
X108710666Y-84236761D01*
X108615428Y-84284380D01*
X108377333Y-84284380D01*
X108282095Y-84236761D01*
X108234476Y-84189142D01*
%TO.C,D24*%
X125085714Y-41052380D02*
X125085714Y-40052380D01*
X125323809Y-40052380D01*
X125466666Y-40100000D01*
X125561904Y-40195238D01*
X125609523Y-40290476D01*
X125657142Y-40480952D01*
X125657142Y-40623809D01*
X125609523Y-40814285D01*
X125561904Y-40909523D01*
X125466666Y-41004761D01*
X125323809Y-41052380D01*
X125085714Y-41052380D01*
X126038095Y-40147619D02*
X126085714Y-40100000D01*
X126180952Y-40052380D01*
X126419047Y-40052380D01*
X126514285Y-40100000D01*
X126561904Y-40147619D01*
X126609523Y-40242857D01*
X126609523Y-40338095D01*
X126561904Y-40480952D01*
X125990476Y-41052380D01*
X126609523Y-41052380D01*
X127466666Y-40385714D02*
X127466666Y-41052380D01*
X127228571Y-40004761D02*
X126990476Y-40719047D01*
X127609523Y-40719047D01*
%TO.C,D23*%
X125085714Y-51052380D02*
X125085714Y-50052380D01*
X125323809Y-50052380D01*
X125466666Y-50100000D01*
X125561904Y-50195238D01*
X125609523Y-50290476D01*
X125657142Y-50480952D01*
X125657142Y-50623809D01*
X125609523Y-50814285D01*
X125561904Y-50909523D01*
X125466666Y-51004761D01*
X125323809Y-51052380D01*
X125085714Y-51052380D01*
X126038095Y-50147619D02*
X126085714Y-50100000D01*
X126180952Y-50052380D01*
X126419047Y-50052380D01*
X126514285Y-50100000D01*
X126561904Y-50147619D01*
X126609523Y-50242857D01*
X126609523Y-50338095D01*
X126561904Y-50480952D01*
X125990476Y-51052380D01*
X126609523Y-51052380D01*
X126942857Y-50052380D02*
X127561904Y-50052380D01*
X127228571Y-50433333D01*
X127371428Y-50433333D01*
X127466666Y-50480952D01*
X127514285Y-50528571D01*
X127561904Y-50623809D01*
X127561904Y-50861904D01*
X127514285Y-50957142D01*
X127466666Y-51004761D01*
X127371428Y-51052380D01*
X127085714Y-51052380D01*
X126990476Y-51004761D01*
X126942857Y-50957142D01*
%TO.C,D22*%
X125085714Y-61052380D02*
X125085714Y-60052380D01*
X125323809Y-60052380D01*
X125466666Y-60100000D01*
X125561904Y-60195238D01*
X125609523Y-60290476D01*
X125657142Y-60480952D01*
X125657142Y-60623809D01*
X125609523Y-60814285D01*
X125561904Y-60909523D01*
X125466666Y-61004761D01*
X125323809Y-61052380D01*
X125085714Y-61052380D01*
X126038095Y-60147619D02*
X126085714Y-60100000D01*
X126180952Y-60052380D01*
X126419047Y-60052380D01*
X126514285Y-60100000D01*
X126561904Y-60147619D01*
X126609523Y-60242857D01*
X126609523Y-60338095D01*
X126561904Y-60480952D01*
X125990476Y-61052380D01*
X126609523Y-61052380D01*
X126990476Y-60147619D02*
X127038095Y-60100000D01*
X127133333Y-60052380D01*
X127371428Y-60052380D01*
X127466666Y-60100000D01*
X127514285Y-60147619D01*
X127561904Y-60242857D01*
X127561904Y-60338095D01*
X127514285Y-60480952D01*
X126942857Y-61052380D01*
X127561904Y-61052380D01*
%TO.C,D21*%
X125085714Y-71052380D02*
X125085714Y-70052380D01*
X125323809Y-70052380D01*
X125466666Y-70100000D01*
X125561904Y-70195238D01*
X125609523Y-70290476D01*
X125657142Y-70480952D01*
X125657142Y-70623809D01*
X125609523Y-70814285D01*
X125561904Y-70909523D01*
X125466666Y-71004761D01*
X125323809Y-71052380D01*
X125085714Y-71052380D01*
X126038095Y-70147619D02*
X126085714Y-70100000D01*
X126180952Y-70052380D01*
X126419047Y-70052380D01*
X126514285Y-70100000D01*
X126561904Y-70147619D01*
X126609523Y-70242857D01*
X126609523Y-70338095D01*
X126561904Y-70480952D01*
X125990476Y-71052380D01*
X126609523Y-71052380D01*
X127561904Y-71052380D02*
X126990476Y-71052380D01*
X127276190Y-71052380D02*
X127276190Y-70052380D01*
X127180952Y-70195238D01*
X127085714Y-70290476D01*
X126990476Y-70338095D01*
%TO.C,D20*%
X20585714Y-61052380D02*
X20585714Y-60052380D01*
X20823809Y-60052380D01*
X20966666Y-60100000D01*
X21061904Y-60195238D01*
X21109523Y-60290476D01*
X21157142Y-60480952D01*
X21157142Y-60623809D01*
X21109523Y-60814285D01*
X21061904Y-60909523D01*
X20966666Y-61004761D01*
X20823809Y-61052380D01*
X20585714Y-61052380D01*
X21538095Y-60147619D02*
X21585714Y-60100000D01*
X21680952Y-60052380D01*
X21919047Y-60052380D01*
X22014285Y-60100000D01*
X22061904Y-60147619D01*
X22109523Y-60242857D01*
X22109523Y-60338095D01*
X22061904Y-60480952D01*
X21490476Y-61052380D01*
X22109523Y-61052380D01*
X22728571Y-60052380D02*
X22823809Y-60052380D01*
X22919047Y-60100000D01*
X22966666Y-60147619D01*
X23014285Y-60242857D01*
X23061904Y-60433333D01*
X23061904Y-60671428D01*
X23014285Y-60861904D01*
X22966666Y-60957142D01*
X22919047Y-61004761D01*
X22823809Y-61052380D01*
X22728571Y-61052380D01*
X22633333Y-61004761D01*
X22585714Y-60957142D01*
X22538095Y-60861904D01*
X22490476Y-60671428D01*
X22490476Y-60433333D01*
X22538095Y-60242857D01*
X22585714Y-60147619D01*
X22633333Y-60100000D01*
X22728571Y-60052380D01*
%TO.C,D19*%
X20585714Y-71052380D02*
X20585714Y-70052380D01*
X20823809Y-70052380D01*
X20966666Y-70100000D01*
X21061904Y-70195238D01*
X21109523Y-70290476D01*
X21157142Y-70480952D01*
X21157142Y-70623809D01*
X21109523Y-70814285D01*
X21061904Y-70909523D01*
X20966666Y-71004761D01*
X20823809Y-71052380D01*
X20585714Y-71052380D01*
X22109523Y-71052380D02*
X21538095Y-71052380D01*
X21823809Y-71052380D02*
X21823809Y-70052380D01*
X21728571Y-70195238D01*
X21633333Y-70290476D01*
X21538095Y-70338095D01*
X22585714Y-71052380D02*
X22776190Y-71052380D01*
X22871428Y-71004761D01*
X22919047Y-70957142D01*
X23014285Y-70814285D01*
X23061904Y-70623809D01*
X23061904Y-70242857D01*
X23014285Y-70147619D01*
X22966666Y-70100000D01*
X22871428Y-70052380D01*
X22680952Y-70052380D01*
X22585714Y-70100000D01*
X22538095Y-70147619D01*
X22490476Y-70242857D01*
X22490476Y-70480952D01*
X22538095Y-70576190D01*
X22585714Y-70623809D01*
X22680952Y-70671428D01*
X22871428Y-70671428D01*
X22966666Y-70623809D01*
X23014285Y-70576190D01*
X23061904Y-70480952D01*
%TO.C,D18*%
X37085714Y-41052380D02*
X37085714Y-40052380D01*
X37323809Y-40052380D01*
X37466666Y-40100000D01*
X37561904Y-40195238D01*
X37609523Y-40290476D01*
X37657142Y-40480952D01*
X37657142Y-40623809D01*
X37609523Y-40814285D01*
X37561904Y-40909523D01*
X37466666Y-41004761D01*
X37323809Y-41052380D01*
X37085714Y-41052380D01*
X38609523Y-41052380D02*
X38038095Y-41052380D01*
X38323809Y-41052380D02*
X38323809Y-40052380D01*
X38228571Y-40195238D01*
X38133333Y-40290476D01*
X38038095Y-40338095D01*
X39180952Y-40480952D02*
X39085714Y-40433333D01*
X39038095Y-40385714D01*
X38990476Y-40290476D01*
X38990476Y-40242857D01*
X39038095Y-40147619D01*
X39085714Y-40100000D01*
X39180952Y-40052380D01*
X39371428Y-40052380D01*
X39466666Y-40100000D01*
X39514285Y-40147619D01*
X39561904Y-40242857D01*
X39561904Y-40290476D01*
X39514285Y-40385714D01*
X39466666Y-40433333D01*
X39371428Y-40480952D01*
X39180952Y-40480952D01*
X39085714Y-40528571D01*
X39038095Y-40576190D01*
X38990476Y-40671428D01*
X38990476Y-40861904D01*
X39038095Y-40957142D01*
X39085714Y-41004761D01*
X39180952Y-41052380D01*
X39371428Y-41052380D01*
X39466666Y-41004761D01*
X39514285Y-40957142D01*
X39561904Y-40861904D01*
X39561904Y-40671428D01*
X39514285Y-40576190D01*
X39466666Y-40528571D01*
X39371428Y-40480952D01*
%TO.C,D17*%
X37085714Y-51052380D02*
X37085714Y-50052380D01*
X37323809Y-50052380D01*
X37466666Y-50100000D01*
X37561904Y-50195238D01*
X37609523Y-50290476D01*
X37657142Y-50480952D01*
X37657142Y-50623809D01*
X37609523Y-50814285D01*
X37561904Y-50909523D01*
X37466666Y-51004761D01*
X37323809Y-51052380D01*
X37085714Y-51052380D01*
X38609523Y-51052380D02*
X38038095Y-51052380D01*
X38323809Y-51052380D02*
X38323809Y-50052380D01*
X38228571Y-50195238D01*
X38133333Y-50290476D01*
X38038095Y-50338095D01*
X38942857Y-50052380D02*
X39609523Y-50052380D01*
X39180952Y-51052380D01*
%TO.C,D16*%
X37085714Y-61052380D02*
X37085714Y-60052380D01*
X37323809Y-60052380D01*
X37466666Y-60100000D01*
X37561904Y-60195238D01*
X37609523Y-60290476D01*
X37657142Y-60480952D01*
X37657142Y-60623809D01*
X37609523Y-60814285D01*
X37561904Y-60909523D01*
X37466666Y-61004761D01*
X37323809Y-61052380D01*
X37085714Y-61052380D01*
X38609523Y-61052380D02*
X38038095Y-61052380D01*
X38323809Y-61052380D02*
X38323809Y-60052380D01*
X38228571Y-60195238D01*
X38133333Y-60290476D01*
X38038095Y-60338095D01*
X39466666Y-60052380D02*
X39276190Y-60052380D01*
X39180952Y-60100000D01*
X39133333Y-60147619D01*
X39038095Y-60290476D01*
X38990476Y-60480952D01*
X38990476Y-60861904D01*
X39038095Y-60957142D01*
X39085714Y-61004761D01*
X39180952Y-61052380D01*
X39371428Y-61052380D01*
X39466666Y-61004761D01*
X39514285Y-60957142D01*
X39561904Y-60861904D01*
X39561904Y-60623809D01*
X39514285Y-60528571D01*
X39466666Y-60480952D01*
X39371428Y-60433333D01*
X39180952Y-60433333D01*
X39085714Y-60480952D01*
X39038095Y-60528571D01*
X38990476Y-60623809D01*
%TO.C,D15*%
X37085714Y-71052380D02*
X37085714Y-70052380D01*
X37323809Y-70052380D01*
X37466666Y-70100000D01*
X37561904Y-70195238D01*
X37609523Y-70290476D01*
X37657142Y-70480952D01*
X37657142Y-70623809D01*
X37609523Y-70814285D01*
X37561904Y-70909523D01*
X37466666Y-71004761D01*
X37323809Y-71052380D01*
X37085714Y-71052380D01*
X38609523Y-71052380D02*
X38038095Y-71052380D01*
X38323809Y-71052380D02*
X38323809Y-70052380D01*
X38228571Y-70195238D01*
X38133333Y-70290476D01*
X38038095Y-70338095D01*
X39514285Y-70052380D02*
X39038095Y-70052380D01*
X38990476Y-70528571D01*
X39038095Y-70480952D01*
X39133333Y-70433333D01*
X39371428Y-70433333D01*
X39466666Y-70480952D01*
X39514285Y-70528571D01*
X39561904Y-70623809D01*
X39561904Y-70861904D01*
X39514285Y-70957142D01*
X39466666Y-71004761D01*
X39371428Y-71052380D01*
X39133333Y-71052380D01*
X39038095Y-71004761D01*
X38990476Y-70957142D01*
%TO.C,D14*%
X58085714Y-51052380D02*
X58085714Y-50052380D01*
X58323809Y-50052380D01*
X58466666Y-50100000D01*
X58561904Y-50195238D01*
X58609523Y-50290476D01*
X58657142Y-50480952D01*
X58657142Y-50623809D01*
X58609523Y-50814285D01*
X58561904Y-50909523D01*
X58466666Y-51004761D01*
X58323809Y-51052380D01*
X58085714Y-51052380D01*
X59609523Y-51052380D02*
X59038095Y-51052380D01*
X59323809Y-51052380D02*
X59323809Y-50052380D01*
X59228571Y-50195238D01*
X59133333Y-50290476D01*
X59038095Y-50338095D01*
X60466666Y-50385714D02*
X60466666Y-51052380D01*
X60228571Y-50004761D02*
X59990476Y-50719047D01*
X60609523Y-50719047D01*
%TO.C,D13*%
X58085714Y-61052380D02*
X58085714Y-60052380D01*
X58323809Y-60052380D01*
X58466666Y-60100000D01*
X58561904Y-60195238D01*
X58609523Y-60290476D01*
X58657142Y-60480952D01*
X58657142Y-60623809D01*
X58609523Y-60814285D01*
X58561904Y-60909523D01*
X58466666Y-61004761D01*
X58323809Y-61052380D01*
X58085714Y-61052380D01*
X59609523Y-61052380D02*
X59038095Y-61052380D01*
X59323809Y-61052380D02*
X59323809Y-60052380D01*
X59228571Y-60195238D01*
X59133333Y-60290476D01*
X59038095Y-60338095D01*
X59942857Y-60052380D02*
X60561904Y-60052380D01*
X60228571Y-60433333D01*
X60371428Y-60433333D01*
X60466666Y-60480952D01*
X60514285Y-60528571D01*
X60561904Y-60623809D01*
X60561904Y-60861904D01*
X60514285Y-60957142D01*
X60466666Y-61004761D01*
X60371428Y-61052380D01*
X60085714Y-61052380D01*
X59990476Y-61004761D01*
X59942857Y-60957142D01*
%TO.C,D12*%
X58085714Y-71052380D02*
X58085714Y-70052380D01*
X58323809Y-70052380D01*
X58466666Y-70100000D01*
X58561904Y-70195238D01*
X58609523Y-70290476D01*
X58657142Y-70480952D01*
X58657142Y-70623809D01*
X58609523Y-70814285D01*
X58561904Y-70909523D01*
X58466666Y-71004761D01*
X58323809Y-71052380D01*
X58085714Y-71052380D01*
X59609523Y-71052380D02*
X59038095Y-71052380D01*
X59323809Y-71052380D02*
X59323809Y-70052380D01*
X59228571Y-70195238D01*
X59133333Y-70290476D01*
X59038095Y-70338095D01*
X59990476Y-70147619D02*
X60038095Y-70100000D01*
X60133333Y-70052380D01*
X60371428Y-70052380D01*
X60466666Y-70100000D01*
X60514285Y-70147619D01*
X60561904Y-70242857D01*
X60561904Y-70338095D01*
X60514285Y-70480952D01*
X59942857Y-71052380D01*
X60561904Y-71052380D01*
%TO.C,D11*%
X72085714Y-41052380D02*
X72085714Y-40052380D01*
X72323809Y-40052380D01*
X72466666Y-40100000D01*
X72561904Y-40195238D01*
X72609523Y-40290476D01*
X72657142Y-40480952D01*
X72657142Y-40623809D01*
X72609523Y-40814285D01*
X72561904Y-40909523D01*
X72466666Y-41004761D01*
X72323809Y-41052380D01*
X72085714Y-41052380D01*
X73609523Y-41052380D02*
X73038095Y-41052380D01*
X73323809Y-41052380D02*
X73323809Y-40052380D01*
X73228571Y-40195238D01*
X73133333Y-40290476D01*
X73038095Y-40338095D01*
X74561904Y-41052380D02*
X73990476Y-41052380D01*
X74276190Y-41052380D02*
X74276190Y-40052380D01*
X74180952Y-40195238D01*
X74085714Y-40290476D01*
X73990476Y-40338095D01*
%TO.C,D10*%
X72085714Y-51052380D02*
X72085714Y-50052380D01*
X72323809Y-50052380D01*
X72466666Y-50100000D01*
X72561904Y-50195238D01*
X72609523Y-50290476D01*
X72657142Y-50480952D01*
X72657142Y-50623809D01*
X72609523Y-50814285D01*
X72561904Y-50909523D01*
X72466666Y-51004761D01*
X72323809Y-51052380D01*
X72085714Y-51052380D01*
X73609523Y-51052380D02*
X73038095Y-51052380D01*
X73323809Y-51052380D02*
X73323809Y-50052380D01*
X73228571Y-50195238D01*
X73133333Y-50290476D01*
X73038095Y-50338095D01*
X74228571Y-50052380D02*
X74323809Y-50052380D01*
X74419047Y-50100000D01*
X74466666Y-50147619D01*
X74514285Y-50242857D01*
X74561904Y-50433333D01*
X74561904Y-50671428D01*
X74514285Y-50861904D01*
X74466666Y-50957142D01*
X74419047Y-51004761D01*
X74323809Y-51052380D01*
X74228571Y-51052380D01*
X74133333Y-51004761D01*
X74085714Y-50957142D01*
X74038095Y-50861904D01*
X73990476Y-50671428D01*
X73990476Y-50433333D01*
X74038095Y-50242857D01*
X74085714Y-50147619D01*
X74133333Y-50100000D01*
X74228571Y-50052380D01*
%TO.C,D9*%
X72561904Y-61052380D02*
X72561904Y-60052380D01*
X72800000Y-60052380D01*
X72942857Y-60100000D01*
X73038095Y-60195238D01*
X73085714Y-60290476D01*
X73133333Y-60480952D01*
X73133333Y-60623809D01*
X73085714Y-60814285D01*
X73038095Y-60909523D01*
X72942857Y-61004761D01*
X72800000Y-61052380D01*
X72561904Y-61052380D01*
X73609523Y-61052380D02*
X73800000Y-61052380D01*
X73895238Y-61004761D01*
X73942857Y-60957142D01*
X74038095Y-60814285D01*
X74085714Y-60623809D01*
X74085714Y-60242857D01*
X74038095Y-60147619D01*
X73990476Y-60100000D01*
X73895238Y-60052380D01*
X73704761Y-60052380D01*
X73609523Y-60100000D01*
X73561904Y-60147619D01*
X73514285Y-60242857D01*
X73514285Y-60480952D01*
X73561904Y-60576190D01*
X73609523Y-60623809D01*
X73704761Y-60671428D01*
X73895238Y-60671428D01*
X73990476Y-60623809D01*
X74038095Y-60576190D01*
X74085714Y-60480952D01*
%TO.C,D8*%
X72561904Y-71052380D02*
X72561904Y-70052380D01*
X72800000Y-70052380D01*
X72942857Y-70100000D01*
X73038095Y-70195238D01*
X73085714Y-70290476D01*
X73133333Y-70480952D01*
X73133333Y-70623809D01*
X73085714Y-70814285D01*
X73038095Y-70909523D01*
X72942857Y-71004761D01*
X72800000Y-71052380D01*
X72561904Y-71052380D01*
X73704761Y-70480952D02*
X73609523Y-70433333D01*
X73561904Y-70385714D01*
X73514285Y-70290476D01*
X73514285Y-70242857D01*
X73561904Y-70147619D01*
X73609523Y-70100000D01*
X73704761Y-70052380D01*
X73895238Y-70052380D01*
X73990476Y-70100000D01*
X74038095Y-70147619D01*
X74085714Y-70242857D01*
X74085714Y-70290476D01*
X74038095Y-70385714D01*
X73990476Y-70433333D01*
X73895238Y-70480952D01*
X73704761Y-70480952D01*
X73609523Y-70528571D01*
X73561904Y-70576190D01*
X73514285Y-70671428D01*
X73514285Y-70861904D01*
X73561904Y-70957142D01*
X73609523Y-71004761D01*
X73704761Y-71052380D01*
X73895238Y-71052380D01*
X73990476Y-71004761D01*
X74038095Y-70957142D01*
X74085714Y-70861904D01*
X74085714Y-70671428D01*
X74038095Y-70576190D01*
X73990476Y-70528571D01*
X73895238Y-70480952D01*
%TO.C,D7*%
X93561904Y-51052380D02*
X93561904Y-50052380D01*
X93800000Y-50052380D01*
X93942857Y-50100000D01*
X94038095Y-50195238D01*
X94085714Y-50290476D01*
X94133333Y-50480952D01*
X94133333Y-50623809D01*
X94085714Y-50814285D01*
X94038095Y-50909523D01*
X93942857Y-51004761D01*
X93800000Y-51052380D01*
X93561904Y-51052380D01*
X94466666Y-50052380D02*
X95133333Y-50052380D01*
X94704761Y-51052380D01*
%TO.C,D6*%
X101438095Y-48947619D02*
X101438095Y-49947619D01*
X101200000Y-49947619D01*
X101057142Y-49900000D01*
X100961904Y-49804761D01*
X100914285Y-49709523D01*
X100866666Y-49519047D01*
X100866666Y-49376190D01*
X100914285Y-49185714D01*
X100961904Y-49090476D01*
X101057142Y-48995238D01*
X101200000Y-48947619D01*
X101438095Y-48947619D01*
X100009523Y-49947619D02*
X100200000Y-49947619D01*
X100295238Y-49900000D01*
X100342857Y-49852380D01*
X100438095Y-49709523D01*
X100485714Y-49519047D01*
X100485714Y-49138095D01*
X100438095Y-49042857D01*
X100390476Y-48995238D01*
X100295238Y-48947619D01*
X100104761Y-48947619D01*
X100009523Y-48995238D01*
X99961904Y-49042857D01*
X99914285Y-49138095D01*
X99914285Y-49376190D01*
X99961904Y-49471428D01*
X100009523Y-49519047D01*
X100104761Y-49566666D01*
X100295238Y-49566666D01*
X100390476Y-49519047D01*
X100438095Y-49471428D01*
X100485714Y-49376190D01*
%TO.C,D5*%
X93561904Y-71052380D02*
X93561904Y-70052380D01*
X93800000Y-70052380D01*
X93942857Y-70100000D01*
X94038095Y-70195238D01*
X94085714Y-70290476D01*
X94133333Y-70480952D01*
X94133333Y-70623809D01*
X94085714Y-70814285D01*
X94038095Y-70909523D01*
X93942857Y-71004761D01*
X93800000Y-71052380D01*
X93561904Y-71052380D01*
X95038095Y-70052380D02*
X94561904Y-70052380D01*
X94514285Y-70528571D01*
X94561904Y-70480952D01*
X94657142Y-70433333D01*
X94895238Y-70433333D01*
X94990476Y-70480952D01*
X95038095Y-70528571D01*
X95085714Y-70623809D01*
X95085714Y-70861904D01*
X95038095Y-70957142D01*
X94990476Y-71004761D01*
X94895238Y-71052380D01*
X94657142Y-71052380D01*
X94561904Y-71004761D01*
X94514285Y-70957142D01*
%TO.C,D4*%
X107561904Y-41052380D02*
X107561904Y-40052380D01*
X107800000Y-40052380D01*
X107942857Y-40100000D01*
X108038095Y-40195238D01*
X108085714Y-40290476D01*
X108133333Y-40480952D01*
X108133333Y-40623809D01*
X108085714Y-40814285D01*
X108038095Y-40909523D01*
X107942857Y-41004761D01*
X107800000Y-41052380D01*
X107561904Y-41052380D01*
X108990476Y-40385714D02*
X108990476Y-41052380D01*
X108752380Y-40004761D02*
X108514285Y-40719047D01*
X109133333Y-40719047D01*
%TO.C,D3*%
X107561904Y-51052380D02*
X107561904Y-50052380D01*
X107800000Y-50052380D01*
X107942857Y-50100000D01*
X108038095Y-50195238D01*
X108085714Y-50290476D01*
X108133333Y-50480952D01*
X108133333Y-50623809D01*
X108085714Y-50814285D01*
X108038095Y-50909523D01*
X107942857Y-51004761D01*
X107800000Y-51052380D01*
X107561904Y-51052380D01*
X108466666Y-50052380D02*
X109085714Y-50052380D01*
X108752380Y-50433333D01*
X108895238Y-50433333D01*
X108990476Y-50480952D01*
X109038095Y-50528571D01*
X109085714Y-50623809D01*
X109085714Y-50861904D01*
X109038095Y-50957142D01*
X108990476Y-51004761D01*
X108895238Y-51052380D01*
X108609523Y-51052380D01*
X108514285Y-51004761D01*
X108466666Y-50957142D01*
%TO.C,D2*%
X107561904Y-61052380D02*
X107561904Y-60052380D01*
X107800000Y-60052380D01*
X107942857Y-60100000D01*
X108038095Y-60195238D01*
X108085714Y-60290476D01*
X108133333Y-60480952D01*
X108133333Y-60623809D01*
X108085714Y-60814285D01*
X108038095Y-60909523D01*
X107942857Y-61004761D01*
X107800000Y-61052380D01*
X107561904Y-61052380D01*
X108514285Y-60147619D02*
X108561904Y-60100000D01*
X108657142Y-60052380D01*
X108895238Y-60052380D01*
X108990476Y-60100000D01*
X109038095Y-60147619D01*
X109085714Y-60242857D01*
X109085714Y-60338095D01*
X109038095Y-60480952D01*
X108466666Y-61052380D01*
X109085714Y-61052380D01*
%TO.C,D1*%
X107561904Y-71052380D02*
X107561904Y-70052380D01*
X107800000Y-70052380D01*
X107942857Y-70100000D01*
X108038095Y-70195238D01*
X108085714Y-70290476D01*
X108133333Y-70480952D01*
X108133333Y-70623809D01*
X108085714Y-70814285D01*
X108038095Y-70909523D01*
X107942857Y-71004761D01*
X107800000Y-71052380D01*
X107561904Y-71052380D01*
X109085714Y-71052380D02*
X108514285Y-71052380D01*
X108800000Y-71052380D02*
X108800000Y-70052380D01*
X108704761Y-70195238D01*
X108609523Y-70290476D01*
X108514285Y-70338095D01*
D11*
%TO.C,D30*%
X25380000Y-76687000D02*
X25380000Y-79777000D01*
X30930000Y-78232462D02*
G75*
G03*
X25380000Y-76687170I-2990000J462D01*
G01*
X25380000Y-79776830D02*
G75*
G03*
X30930000Y-78231538I2560000J1544830D01*
G01*
X30440000Y-78232000D02*
G75*
G03*
X30440000Y-78232000I-2500000J0D01*
G01*
%TO.C,D29*%
X39096000Y-76687000D02*
X39096000Y-79777000D01*
X44646000Y-78232462D02*
G75*
G03*
X39096000Y-76687170I-2990000J462D01*
G01*
X39096000Y-79776830D02*
G75*
G03*
X44646000Y-78231538I2560000J1544830D01*
G01*
X44156000Y-78232000D02*
G75*
G03*
X44156000Y-78232000I-2500000J0D01*
G01*
%TO.C,D28*%
X61702000Y-76687000D02*
X61702000Y-79777000D01*
X67252000Y-78232462D02*
G75*
G03*
X61702000Y-76687170I-2990000J462D01*
G01*
X61702000Y-79776830D02*
G75*
G03*
X67252000Y-78231538I2560000J1544830D01*
G01*
X66762000Y-78232000D02*
G75*
G03*
X66762000Y-78232000I-2500000J0D01*
G01*
%TO.C,D27*%
X72116000Y-76687000D02*
X72116000Y-79777000D01*
X77666000Y-78232462D02*
G75*
G03*
X72116000Y-76687170I-2990000J462D01*
G01*
X72116000Y-79776830D02*
G75*
G03*
X77666000Y-78231538I2560000J1544830D01*
G01*
X77176000Y-78232000D02*
G75*
G03*
X77176000Y-78232000I-2500000J0D01*
G01*
%TO.C,D26*%
X95230000Y-76687000D02*
X95230000Y-79777000D01*
X100780000Y-78232462D02*
G75*
G03*
X95230000Y-76687170I-2990000J462D01*
G01*
X95230000Y-79776830D02*
G75*
G03*
X100780000Y-78231538I2560000J1544830D01*
G01*
X100290000Y-78232000D02*
G75*
G03*
X100290000Y-78232000I-2500000J0D01*
G01*
%TO.C,D25*%
X108184000Y-76687000D02*
X108184000Y-79777000D01*
X113734000Y-78232462D02*
G75*
G03*
X108184000Y-76687170I-2990000J462D01*
G01*
X108184000Y-79776830D02*
G75*
G03*
X113734000Y-78231538I2560000J1544830D01*
G01*
X113244000Y-78232000D02*
G75*
G03*
X113244000Y-78232000I-2500000J0D01*
G01*
%TO.C,D24*%
X126940000Y-33455000D02*
X126940000Y-36545000D01*
X132490000Y-35000462D02*
G75*
G03*
X126940000Y-33455170I-2990000J462D01*
G01*
X126940000Y-36544830D02*
G75*
G03*
X132490000Y-34999538I2560000J1544830D01*
G01*
X132000000Y-35000000D02*
G75*
G03*
X132000000Y-35000000I-2500000J0D01*
G01*
%TO.C,D23*%
X126940000Y-43455000D02*
X126940000Y-46545000D01*
X132490000Y-45000462D02*
G75*
G03*
X126940000Y-43455170I-2990000J462D01*
G01*
X126940000Y-46544830D02*
G75*
G03*
X132490000Y-44999538I2560000J1544830D01*
G01*
X132000000Y-45000000D02*
G75*
G03*
X132000000Y-45000000I-2500000J0D01*
G01*
%TO.C,D22*%
X126940000Y-53455000D02*
X126940000Y-56545000D01*
X132490000Y-55000462D02*
G75*
G03*
X126940000Y-53455170I-2990000J462D01*
G01*
X126940000Y-56544830D02*
G75*
G03*
X132490000Y-54999538I2560000J1544830D01*
G01*
X132000000Y-55000000D02*
G75*
G03*
X132000000Y-55000000I-2500000J0D01*
G01*
%TO.C,D21*%
X126940000Y-63455000D02*
X126940000Y-66545000D01*
X132490000Y-65000462D02*
G75*
G03*
X126940000Y-63455170I-2990000J462D01*
G01*
X126940000Y-66544830D02*
G75*
G03*
X132490000Y-64999538I2560000J1544830D01*
G01*
X132000000Y-65000000D02*
G75*
G03*
X132000000Y-65000000I-2500000J0D01*
G01*
%TO.C,D20*%
X22440000Y-53455000D02*
X22440000Y-56545000D01*
X27990000Y-55000462D02*
G75*
G03*
X22440000Y-53455170I-2990000J462D01*
G01*
X22440000Y-56544830D02*
G75*
G03*
X27990000Y-54999538I2560000J1544830D01*
G01*
X27500000Y-55000000D02*
G75*
G03*
X27500000Y-55000000I-2500000J0D01*
G01*
%TO.C,D19*%
X22440000Y-63455000D02*
X22440000Y-66545000D01*
X27990000Y-65000462D02*
G75*
G03*
X22440000Y-63455170I-2990000J462D01*
G01*
X22440000Y-66544830D02*
G75*
G03*
X27990000Y-64999538I2560000J1544830D01*
G01*
X27500000Y-65000000D02*
G75*
G03*
X27500000Y-65000000I-2500000J0D01*
G01*
%TO.C,D18*%
X38940000Y-33455000D02*
X38940000Y-36545000D01*
X44490000Y-35000462D02*
G75*
G03*
X38940000Y-33455170I-2990000J462D01*
G01*
X38940000Y-36544830D02*
G75*
G03*
X44490000Y-34999538I2560000J1544830D01*
G01*
X44000000Y-35000000D02*
G75*
G03*
X44000000Y-35000000I-2500000J0D01*
G01*
%TO.C,D17*%
X38940000Y-43455000D02*
X38940000Y-46545000D01*
X44490000Y-45000462D02*
G75*
G03*
X38940000Y-43455170I-2990000J462D01*
G01*
X38940000Y-46544830D02*
G75*
G03*
X44490000Y-44999538I2560000J1544830D01*
G01*
X44000000Y-45000000D02*
G75*
G03*
X44000000Y-45000000I-2500000J0D01*
G01*
%TO.C,D16*%
X38940000Y-53455000D02*
X38940000Y-56545000D01*
X44490000Y-55000462D02*
G75*
G03*
X38940000Y-53455170I-2990000J462D01*
G01*
X38940000Y-56544830D02*
G75*
G03*
X44490000Y-54999538I2560000J1544830D01*
G01*
X44000000Y-55000000D02*
G75*
G03*
X44000000Y-55000000I-2500000J0D01*
G01*
%TO.C,D15*%
X38940000Y-63455000D02*
X38940000Y-66545000D01*
X44490000Y-65000462D02*
G75*
G03*
X38940000Y-63455170I-2990000J462D01*
G01*
X38940000Y-66544830D02*
G75*
G03*
X44490000Y-64999538I2560000J1544830D01*
G01*
X44000000Y-65000000D02*
G75*
G03*
X44000000Y-65000000I-2500000J0D01*
G01*
%TO.C,D14*%
X59940000Y-43455000D02*
X59940000Y-46545000D01*
X65490000Y-45000462D02*
G75*
G03*
X59940000Y-43455170I-2990000J462D01*
G01*
X59940000Y-46544830D02*
G75*
G03*
X65490000Y-44999538I2560000J1544830D01*
G01*
X65000000Y-45000000D02*
G75*
G03*
X65000000Y-45000000I-2500000J0D01*
G01*
%TO.C,D13*%
X59940000Y-53455000D02*
X59940000Y-56545000D01*
X65490000Y-55000462D02*
G75*
G03*
X59940000Y-53455170I-2990000J462D01*
G01*
X59940000Y-56544830D02*
G75*
G03*
X65490000Y-54999538I2560000J1544830D01*
G01*
X65000000Y-55000000D02*
G75*
G03*
X65000000Y-55000000I-2500000J0D01*
G01*
%TO.C,D12*%
X59940000Y-63455000D02*
X59940000Y-66545000D01*
X65490000Y-65000462D02*
G75*
G03*
X59940000Y-63455170I-2990000J462D01*
G01*
X59940000Y-66544830D02*
G75*
G03*
X65490000Y-64999538I2560000J1544830D01*
G01*
X65000000Y-65000000D02*
G75*
G03*
X65000000Y-65000000I-2500000J0D01*
G01*
%TO.C,D11*%
X73940000Y-33455000D02*
X73940000Y-36545000D01*
X79490000Y-35000462D02*
G75*
G03*
X73940000Y-33455170I-2990000J462D01*
G01*
X73940000Y-36544830D02*
G75*
G03*
X79490000Y-34999538I2560000J1544830D01*
G01*
X79000000Y-35000000D02*
G75*
G03*
X79000000Y-35000000I-2500000J0D01*
G01*
%TO.C,D10*%
X73940000Y-43455000D02*
X73940000Y-46545000D01*
X79490000Y-45000462D02*
G75*
G03*
X73940000Y-43455170I-2990000J462D01*
G01*
X73940000Y-46544830D02*
G75*
G03*
X79490000Y-44999538I2560000J1544830D01*
G01*
X79000000Y-45000000D02*
G75*
G03*
X79000000Y-45000000I-2500000J0D01*
G01*
%TO.C,D9*%
X73940000Y-53455000D02*
X73940000Y-56545000D01*
X79490000Y-55000462D02*
G75*
G03*
X73940000Y-53455170I-2990000J462D01*
G01*
X73940000Y-56544830D02*
G75*
G03*
X79490000Y-54999538I2560000J1544830D01*
G01*
X79000000Y-55000000D02*
G75*
G03*
X79000000Y-55000000I-2500000J0D01*
G01*
%TO.C,D8*%
X73940000Y-63455000D02*
X73940000Y-66545000D01*
X79490000Y-65000462D02*
G75*
G03*
X73940000Y-63455170I-2990000J462D01*
G01*
X73940000Y-66544830D02*
G75*
G03*
X79490000Y-64999538I2560000J1544830D01*
G01*
X79000000Y-65000000D02*
G75*
G03*
X79000000Y-65000000I-2500000J0D01*
G01*
%TO.C,D7*%
X94940000Y-43455000D02*
X94940000Y-46545000D01*
X100490000Y-45000462D02*
G75*
G03*
X94940000Y-43455170I-2990000J462D01*
G01*
X94940000Y-46544830D02*
G75*
G03*
X100490000Y-44999538I2560000J1544830D01*
G01*
X100000000Y-45000000D02*
G75*
G03*
X100000000Y-45000000I-2500000J0D01*
G01*
%TO.C,D6*%
X100060000Y-56545000D02*
X100060000Y-53455000D01*
X94510000Y-54999538D02*
G75*
G03*
X100060000Y-56544830I2990000J-462D01*
G01*
X100060000Y-53455170D02*
G75*
G03*
X94510000Y-55000462I-2560000J-1544830D01*
G01*
X100000000Y-55000000D02*
G75*
G03*
X100000000Y-55000000I-2500000J0D01*
G01*
%TO.C,D5*%
X94940000Y-63455000D02*
X94940000Y-66545000D01*
X100490000Y-65000462D02*
G75*
G03*
X94940000Y-63455170I-2990000J462D01*
G01*
X94940000Y-66544830D02*
G75*
G03*
X100490000Y-64999538I2560000J1544830D01*
G01*
X100000000Y-65000000D02*
G75*
G03*
X100000000Y-65000000I-2500000J0D01*
G01*
%TO.C,D4*%
X108940000Y-33455000D02*
X108940000Y-36545000D01*
X114490000Y-35000462D02*
G75*
G03*
X108940000Y-33455170I-2990000J462D01*
G01*
X108940000Y-36544830D02*
G75*
G03*
X114490000Y-34999538I2560000J1544830D01*
G01*
X114000000Y-35000000D02*
G75*
G03*
X114000000Y-35000000I-2500000J0D01*
G01*
%TO.C,D3*%
X108940000Y-43455000D02*
X108940000Y-46545000D01*
X114490000Y-45000462D02*
G75*
G03*
X108940000Y-43455170I-2990000J462D01*
G01*
X108940000Y-46544830D02*
G75*
G03*
X114490000Y-44999538I2560000J1544830D01*
G01*
X114000000Y-45000000D02*
G75*
G03*
X114000000Y-45000000I-2500000J0D01*
G01*
%TO.C,D2*%
X108940000Y-53455000D02*
X108940000Y-56545000D01*
X114490000Y-55000462D02*
G75*
G03*
X108940000Y-53455170I-2990000J462D01*
G01*
X108940000Y-56544830D02*
G75*
G03*
X114490000Y-54999538I2560000J1544830D01*
G01*
X114000000Y-55000000D02*
G75*
G03*
X114000000Y-55000000I-2500000J0D01*
G01*
%TO.C,D1*%
X114000000Y-65000000D02*
G75*
G03*
X114000000Y-65000000I-2500000J0D01*
G01*
X108940000Y-66544830D02*
G75*
G03*
X114490000Y-64999538I2560000J1544830D01*
G01*
X114490000Y-65000462D02*
G75*
G03*
X108940000Y-63455170I-2990000J462D01*
G01*
X108940000Y-63455000D02*
X108940000Y-66545000D01*
%TD*%
M02*
