M48
; DRILL file {KiCad (6.0.4)} date Mon Oct 16 18:27:47 2023
; FORMAT={-:-/ absolute / metric / decimal}
; #@! TF.CreationDate,2023-10-16T18:27:47+02:00
; #@! TF.GenerationSoftware,Kicad,Pcbnew,(6.0.4)
; #@! TF.FileFunction,Plated,1,2,PTH
FMAT,2
METRIC
; #@! TA.AperFunction,Plated,PTH,ViaDrill
T1C0.400
; #@! TA.AperFunction,Plated,PTH,ComponentDrill
T2C0.800
; #@! TA.AperFunction,Plated,PTH,ComponentDrill
T3C0.889
; #@! TA.AperFunction,Plated,PTH,ComponentDrill
T4C0.900
; #@! TA.AperFunction,Plated,PTH,ComponentDrill
T5C1.000
%
G90
G05
T1
X65.786Y-29.464
X67.818Y-31.242
X109.728Y-22.098
T2
X8.88Y-50.307
X8.88Y-52.847
X8.88Y-55.387
X8.88Y-57.927
X8.88Y-60.467
X8.88Y-63.007
X8.88Y-65.547
X8.88Y-68.087
X16.5Y-50.307
X16.5Y-52.847
X16.5Y-55.387
X16.5Y-57.927
X16.5Y-60.467
X16.5Y-63.007
X16.5Y-65.547
X16.5Y-68.087
X28.956Y-84.074
X28.956Y-96.774
X42.926Y-83.82
X42.926Y-96.52
X47.996Y-45.989
X47.996Y-48.529
X47.996Y-51.069
X47.996Y-53.609
X47.996Y-56.149
X47.996Y-58.689
X47.996Y-61.229
X47.996Y-63.769
X55.616Y-45.989
X55.616Y-48.529
X55.616Y-51.069
X55.616Y-53.609
X55.616Y-56.149
X55.616Y-58.689
X55.616Y-61.229
X55.616Y-63.769
X64.262Y-83.566
X64.262Y-96.266
X75.184Y-83.566
X75.184Y-96.266
X83.556Y-46.497
X83.556Y-49.037
X83.556Y-51.577
X83.556Y-54.117
X83.556Y-56.657
X83.556Y-59.197
X83.556Y-61.737
X83.556Y-64.277
X91.176Y-46.497
X91.176Y-49.037
X91.176Y-51.577
X91.176Y-54.117
X91.176Y-56.657
X91.176Y-59.197
X91.176Y-61.737
X91.176Y-64.277
X98.806Y-84.328
X98.806Y-97.028
X111.506Y-84.328
X111.506Y-97.028
X134.62Y-44.958
X134.62Y-54.356
X134.62Y-64.77
X134.874Y-34.798
X147.32Y-44.958
X147.32Y-54.356
X147.32Y-64.77
X147.574Y-34.798
T3
X105.664Y-4.318
X105.664Y-27.178
X108.204Y-4.318
X108.204Y-27.178
X110.744Y-4.318
X110.744Y-27.178
X113.284Y-4.318
X113.284Y-27.178
X115.824Y-4.318
X115.824Y-27.178
X118.364Y-4.318
X118.364Y-27.178
X120.904Y-4.318
X120.904Y-27.178
X123.444Y-4.318
X123.444Y-27.178
X125.984Y-4.318
X125.984Y-27.178
X128.524Y-4.318
X128.524Y-27.178
X131.064Y-4.318
X131.064Y-27.178
X133.604Y-4.318
X133.604Y-27.178
X136.144Y-4.318
X136.144Y-27.178
X138.684Y-4.318
X138.684Y-27.178
X141.224Y-4.318
X141.224Y-27.178
T4
X23.73Y-55.0
X23.73Y-65.0
X26.27Y-55.0
X26.27Y-65.0
X26.67Y-78.232
X29.21Y-78.232
X40.23Y-35.0
X40.23Y-45.0
X40.23Y-55.0
X40.23Y-65.0
X40.386Y-78.232
X42.77Y-35.0
X42.77Y-45.0
X42.77Y-55.0
X42.77Y-65.0
X42.926Y-78.232
X61.23Y-45.0
X61.23Y-55.0
X61.23Y-65.0
X62.992Y-78.232
X63.77Y-45.0
X63.77Y-55.0
X63.77Y-65.0
X65.532Y-78.232
X73.406Y-78.232
X75.23Y-35.0
X75.23Y-45.0
X75.23Y-55.0
X75.23Y-65.0
X75.946Y-78.232
X77.77Y-35.0
X77.77Y-45.0
X77.77Y-55.0
X77.77Y-65.0
X96.23Y-45.0
X96.23Y-55.0
X96.23Y-65.0
X96.52Y-78.232
X98.77Y-45.0
X98.77Y-55.0
X98.77Y-65.0
X99.06Y-78.232
X109.474Y-78.232
X110.23Y-35.0
X110.23Y-45.0
X110.23Y-55.0
X110.23Y-65.0
X112.014Y-78.232
X112.77Y-35.0
X112.77Y-45.0
X112.77Y-55.0
X112.77Y-65.0
X128.23Y-35.0
X128.23Y-45.0
X128.23Y-55.0
X128.23Y-65.0
X130.77Y-35.0
X130.77Y-45.0
X130.77Y-55.0
X130.77Y-65.0
T5
X11.851Y-5.518
X12.851Y-30.017
X14.39Y-5.518
X15.39Y-30.017
X16.93Y-5.518
X17.93Y-30.017
X19.47Y-5.518
X20.47Y-30.017
X22.011Y-5.518
X23.011Y-30.017
X24.55Y-5.518
X27.09Y-5.518
T0
M30
